<svg xmlns="http://www.w3.org/2000/svg" xmlns:xlink="http://www.w3.org/1999/xlink" width="1920" zoomAndPan="magnify" viewBox="0 0 1440 809.999993" height="1080" preserveAspectRatio="xMidYMid meet" version="1.0"><defs><clipPath id="bad0e336c2"><path d="M 546.507812 243 L 893.757812 243 L 893.757812 567 L 546.507812 567 Z M 546.507812 243 " clip-rule="nonzero"/></clipPath></defs><g clip-path="url(#bad0e336c2)"><path fill="#000000" d="M 870.355469 312.472656 L 870.355469 289.339844 L 847.222656 289.339844 L 847.222656 266.207031 L 824.089844 266.207031 L 824.089844 243.074219 L 754.695312 243.074219 L 754.695312 266.207031 L 731.5625 266.207031 L 731.5625 289.339844 L 708.429688 289.339844 L 708.429688 266.207031 L 685.296875 266.207031 L 685.296875 243.074219 L 615.902344 243.074219 L 615.902344 266.207031 L 592.769531 266.207031 L 592.769531 289.339844 L 569.636719 289.339844 L 569.636719 312.472656 L 546.503906 312.472656 L 546.503906 405 L 569.636719 405 L 569.636719 428.132812 L 592.769531 428.132812 L 592.769531 451.265625 L 615.902344 451.265625 L 615.902344 474.398438 L 639.03125 474.398438 L 639.03125 497.527344 L 662.164062 497.527344 L 662.164062 520.660156 L 685.296875 520.660156 L 685.296875 543.792969 L 708.429688 543.792969 L 708.429688 566.925781 L 731.5625 566.925781 L 731.5625 543.792969 L 754.695312 543.792969 L 754.695312 520.660156 L 777.828125 520.660156 L 777.828125 497.527344 L 800.960938 497.527344 L 800.960938 474.398438 L 824.089844 474.398438 L 824.089844 451.265625 L 847.222656 451.265625 L 847.222656 428.132812 L 870.355469 428.132812 L 870.355469 405 L 893.488281 405 L 893.488281 312.472656 L 870.355469 312.472656 " fill-opacity="1" fill-rule="nonzero"/></g><path fill="#ffffff" d="M 847.222656 312.472656 L 847.222656 289.339844 L 824.089844 289.339844 L 824.089844 266.207031 L 754.695312 266.207031 L 754.695312 289.339844 L 731.5625 289.339844 L 731.5625 312.472656 L 708.429688 312.472656 L 708.429688 289.339844 L 685.296875 289.339844 L 685.296875 266.207031 L 615.902344 266.207031 L 615.902344 289.339844 L 592.769531 289.339844 L 592.769531 312.472656 L 569.636719 312.472656 L 569.636719 405 L 592.769531 405 L 592.769531 428.132812 L 615.902344 428.132812 L 615.902344 451.265625 L 639.03125 451.265625 L 639.03125 474.398438 L 662.164062 474.398438 L 662.164062 497.527344 L 685.296875 497.527344 L 685.296875 520.660156 L 708.429688 520.660156 L 708.429688 543.792969 L 731.5625 543.792969 L 731.5625 520.660156 L 754.695312 520.660156 L 754.695312 497.527344 L 777.828125 497.527344 L 777.828125 474.398438 L 800.960938 474.398438 L 800.960938 451.265625 L 824.089844 451.265625 L 824.089844 428.132812 L 847.222656 428.132812 L 847.222656 405 L 870.355469 405 L 870.355469 312.472656 L 847.222656 312.472656 " fill-opacity="1" fill-rule="nonzero"/><path fill="#ffffff" d="M 754.695312 497.527344 L 777.828125 497.527344 L 777.828125 474.398438 L 754.695312 474.398438 L 754.695312 497.527344 M 777.828125 474.398438 L 800.960938 474.398438 L 800.960938 451.265625 L 777.828125 451.265625 L 777.828125 474.398438 M 800.960938 451.265625 L 824.089844 451.265625 L 824.089844 428.132812 L 800.960938 428.132812 L 800.960938 451.265625 M 824.089844 428.132812 L 847.222656 428.132812 L 847.222656 405 L 824.089844 405 L 824.089844 428.132812 M 847.222656 312.472656 L 847.222656 405 L 870.355469 405 L 870.355469 312.472656 L 847.222656 312.472656 M 824.089844 289.339844 L 824.089844 312.472656 L 847.222656 312.472656 L 847.222656 289.339844 L 824.089844 289.339844 M 708.429688 543.792969 L 731.5625 543.792969 L 731.5625 520.660156 L 708.429688 520.660156 L 708.429688 543.792969 M 731.5625 497.527344 L 754.695312 497.527344 L 754.695312 520.660156 L 731.5625 520.660156 L 731.5625 497.527344 " fill-opacity="1" fill-rule="nonzero"/><path fill="#ffffff" d="M 592.769531 381.867188 L 569.636719 381.867188 L 569.636719 312.472656 L 592.769531 312.472656 L 592.769531 381.867188 M 754.695312 312.472656 L 731.5625 312.472656 L 731.5625 289.339844 L 754.695312 289.339844 L 754.695312 312.472656 M 615.902344 312.472656 L 592.769531 312.472656 L 592.769531 289.339844 L 615.902344 289.339844 L 615.902344 312.472656 " fill-opacity="1" fill-rule="nonzero"/><path fill="#ffffff" d="M 824.089844 289.339844 L 754.695312 289.339844 L 754.695312 266.207031 L 824.089844 266.207031 L 824.089844 289.339844 " fill-opacity="1" fill-rule="nonzero"/><path fill="#ffffff" d="M 685.296875 289.339844 L 615.902344 289.339844 L 615.902344 266.207031 L 685.296875 266.207031 L 685.296875 289.339844 " fill-opacity="1" fill-rule="nonzero"/></svg>