<svg xmlns="http://www.w3.org/2000/svg" xmlns:xlink="http://www.w3.org/1999/xlink" width="1920" zoomAndPan="magnify" viewBox="0 0 1440 809.999993" height="1080" preserveAspectRatio="xMidYMid meet" version="1.0"><defs><clipPath id="69bf3bf2c5"><path d="M 546.507812 243 L 893.757812 243 L 893.757812 567 L 546.507812 567 Z M 546.507812 243 " clip-rule="nonzero"/></clipPath></defs><g clip-path="url(#69bf3bf2c5)"><path fill="#000000" d="M 870.609375 312.472656 L 870.609375 289.339844 L 847.457031 289.339844 L 847.457031 266.207031 L 824.308594 266.207031 L 824.308594 243.074219 L 754.855469 243.074219 L 754.855469 266.207031 L 731.707031 266.207031 L 731.707031 289.339844 L 708.554688 289.339844 L 708.554688 266.207031 L 685.40625 266.207031 L 685.40625 243.074219 L 615.953125 243.074219 L 615.953125 266.207031 L 592.804688 266.207031 L 592.804688 289.339844 L 569.65625 289.339844 L 569.65625 312.472656 L 546.503906 312.472656 L 546.503906 405 L 569.65625 405 L 569.65625 428.132812 L 592.804688 428.132812 L 592.804688 451.265625 L 615.953125 451.265625 L 615.953125 474.398438 L 639.105469 474.398438 L 639.105469 497.527344 L 662.253906 497.527344 L 662.253906 520.660156 L 685.40625 520.660156 L 685.40625 543.792969 L 708.554688 543.792969 L 708.554688 566.925781 L 731.707031 566.925781 L 731.707031 543.792969 L 754.855469 543.792969 L 754.855469 520.660156 L 778.007812 520.660156 L 778.007812 497.527344 L 801.15625 497.527344 L 801.15625 474.398438 L 824.308594 474.398438 L 824.308594 451.265625 L 847.457031 451.265625 L 847.457031 428.132812 L 870.609375 428.132812 L 870.609375 405 L 893.757812 405 L 893.757812 312.472656 L 870.609375 312.472656 " fill-opacity="1" fill-rule="nonzero"/></g><path fill="#ed1717" d="M 847.457031 312.472656 L 847.457031 289.339844 L 824.308594 289.339844 L 824.308594 266.207031 L 754.855469 266.207031 L 754.855469 289.339844 L 731.707031 289.339844 L 731.707031 312.472656 L 708.554688 312.472656 L 708.554688 289.339844 L 685.40625 289.339844 L 685.40625 266.207031 L 615.953125 266.207031 L 615.953125 289.339844 L 592.804688 289.339844 L 592.804688 312.472656 L 569.65625 312.472656 L 569.65625 405 L 592.804688 405 L 592.804688 428.132812 L 615.953125 428.132812 L 615.953125 451.265625 L 639.105469 451.265625 L 639.105469 474.398438 L 662.253906 474.398438 L 662.253906 497.527344 L 685.40625 497.527344 L 685.40625 520.660156 L 708.554688 520.660156 L 708.554688 543.792969 L 731.707031 543.792969 L 731.707031 520.660156 L 754.855469 520.660156 L 754.855469 497.527344 L 778.007812 497.527344 L 778.007812 474.398438 L 801.15625 474.398438 L 801.15625 451.265625 L 824.308594 451.265625 L 824.308594 428.132812 L 847.457031 428.132812 L 847.457031 405 L 870.609375 405 L 870.609375 312.472656 L 847.457031 312.472656 " fill-opacity="1" fill-rule="nonzero"/><path fill="#a30000" d="M 754.855469 497.527344 L 778.007812 497.527344 L 778.007812 474.398438 L 754.855469 474.398438 L 754.855469 497.527344 M 778.007812 474.398438 L 801.15625 474.398438 L 801.15625 451.265625 L 778.007812 451.265625 L 778.007812 474.398438 M 801.15625 451.265625 L 824.308594 451.265625 L 824.308594 428.132812 L 801.15625 428.132812 L 801.15625 451.265625 M 824.308594 428.132812 L 847.457031 428.132812 L 847.457031 405 L 824.308594 405 L 824.308594 428.132812 M 847.457031 312.472656 L 847.457031 405 L 870.609375 405 L 870.609375 312.472656 L 847.457031 312.472656 M 824.308594 289.339844 L 824.308594 312.472656 L 847.457031 312.472656 L 847.457031 289.339844 L 824.308594 289.339844 M 708.554688 543.792969 L 731.707031 543.792969 L 731.707031 520.660156 L 708.554688 520.660156 L 708.554688 543.792969 M 731.707031 497.527344 L 754.855469 497.527344 L 754.855469 520.660156 L 731.707031 520.660156 L 731.707031 497.527344 " fill-opacity="1" fill-rule="nonzero"/><path fill="#f68b8b" d="M 592.804688 381.867188 L 569.65625 381.867188 L 569.65625 312.472656 L 592.804688 312.472656 L 592.804688 381.867188 M 754.855469 312.472656 L 731.707031 312.472656 L 731.707031 289.339844 L 754.855469 289.339844 L 754.855469 312.472656 M 615.953125 312.472656 L 592.804688 312.472656 L 592.804688 289.339844 L 615.953125 289.339844 L 615.953125 312.472656 " fill-opacity="1" fill-rule="nonzero"/><path fill="#f68b8b" d="M 824.308594 289.339844 L 754.855469 289.339844 L 754.855469 266.207031 L 824.308594 266.207031 L 824.308594 289.339844 " fill-opacity="1" fill-rule="nonzero"/><path fill="#f68b8b" d="M 685.40625 289.339844 L 615.953125 289.339844 L 615.953125 266.207031 L 685.40625 266.207031 L 685.40625 289.339844 " fill-opacity="1" fill-rule="nonzero"/></svg>