<svg xmlns="http://www.w3.org/2000/svg" xmlns:xlink="http://www.w3.org/1999/xlink" width="1920" zoomAndPan="magnify" viewBox="0 0 1440 809.999993" height="1080" preserveAspectRatio="xMidYMid meet" version="1.0"><defs><clipPath id="91cf38b884"><path d="M 469.667969 154.667969 L 970.667969 154.667969 L 970.667969 655.667969 L 469.667969 655.667969 Z M 469.667969 154.667969 " clip-rule="nonzero"/></clipPath><clipPath id="cbab45a1f7"><path d="M 678 154.667969 L 762 154.667969 L 762 197 L 678 197 Z M 678 154.667969 " clip-rule="nonzero"/></clipPath><clipPath id="a3b876766e"><path d="M 928 363 L 970.667969 363 L 970.667969 447 L 928 447 Z M 928 363 " clip-rule="nonzero"/></clipPath><clipPath id="6c48b2c35a"><path d="M 469.667969 363 L 512 363 L 512 447 L 469.667969 447 Z M 469.667969 363 " clip-rule="nonzero"/></clipPath><clipPath id="ce4d3e31b6"><path d="M 678 613 L 762 613 L 762 655.667969 L 678 655.667969 Z M 678 613 " clip-rule="nonzero"/></clipPath></defs><g clip-path="url(#91cf38b884)"><path fill="#ffd524" d="M 928.917969 363.417969 L 928.917969 279.917969 L 887.167969 279.917969 L 887.167969 238.167969 L 845.417969 238.167969 L 845.417969 196.417969 L 761.917969 196.417969 L 761.917969 154.667969 L 678.417969 154.667969 L 678.417969 196.417969 L 594.917969 196.417969 L 594.917969 238.167969 L 553.167969 238.167969 L 553.167969 279.917969 L 511.417969 279.917969 L 511.417969 363.417969 L 469.667969 363.417969 L 469.667969 446.917969 L 511.417969 446.917969 L 511.417969 530.417969 L 553.167969 530.417969 L 553.167969 572.167969 L 594.917969 572.167969 L 594.917969 613.917969 L 678.417969 613.917969 L 678.417969 655.667969 L 761.917969 655.667969 L 761.917969 613.917969 L 845.417969 613.917969 L 845.417969 572.167969 L 887.167969 572.167969 L 887.167969 530.417969 L 928.917969 530.417969 L 928.917969 446.917969 L 970.667969 446.917969 L 970.667969 363.417969 Z M 928.917969 363.417969 " fill-opacity="1" fill-rule="nonzero"/><path fill="#fdad16" d="M 928.917969 363.417969 L 928.917969 279.917969 L 887.167969 279.917969 L 887.167969 238.167969 L 845.417969 238.167969 L 845.417969 196.417969 L 761.917969 196.417969 L 761.917969 154.667969 L 678.417969 154.667969 L 678.417969 196.417969 L 594.917969 196.417969 L 594.917969 238.167969 L 553.167969 238.167969 L 553.167969 279.917969 L 511.417969 279.917969 L 511.417969 363.417969 L 469.667969 363.417969 L 469.667969 446.917969 L 511.417969 446.917969 L 511.417969 530.417969 L 553.167969 530.417969 L 553.167969 572.167969 L 594.917969 572.167969 L 594.917969 613.917969 L 678.417969 613.917969 L 678.417969 655.667969 L 761.917969 655.667969 L 761.917969 613.917969 L 845.417969 613.917969 L 845.417969 572.167969 L 887.167969 572.167969 L 887.167969 530.417969 L 928.917969 530.417969 L 928.917969 446.917969 L 970.667969 446.917969 L 970.667969 363.417969 Z M 928.917969 363.417969 " fill-opacity="1" fill-rule="nonzero"/></g><path fill="#ffe24c" d="M 553.167969 238.167969 L 594.917969 238.167969 L 594.917969 279.917969 L 553.167969 279.917969 Z M 553.167969 238.167969 " fill-opacity="1" fill-rule="nonzero"/><path fill="#ffe24c" d="M 594.917969 196.417969 L 678.417969 196.417969 L 678.417969 238.167969 L 594.917969 238.167969 Z M 594.917969 196.417969 " fill-opacity="1" fill-rule="nonzero"/><g clip-path="url(#cbab45a1f7)"><path fill="#ffe24c" d="M 678.417969 154.667969 L 761.917969 154.667969 L 761.917969 196.417969 L 678.417969 196.417969 Z M 678.417969 154.667969 " fill-opacity="1" fill-rule="nonzero"/></g><path fill="#ffe24c" d="M 761.917969 196.417969 L 845.417969 196.417969 L 845.417969 238.167969 L 761.917969 238.167969 Z M 761.917969 196.417969 " fill-opacity="1" fill-rule="nonzero"/><path fill="#ffe24c" d="M 845.417969 238.167969 L 887.167969 238.167969 L 887.167969 279.917969 L 845.417969 279.917969 Z M 845.417969 238.167969 " fill-opacity="1" fill-rule="nonzero"/><path fill="#ffe24c" d="M 887.167969 279.917969 L 928.917969 279.917969 L 928.917969 363.417969 L 887.167969 363.417969 Z M 887.167969 279.917969 " fill-opacity="1" fill-rule="nonzero"/><g clip-path="url(#a3b876766e)"><path fill="#ffe24c" d="M 928.917969 363.417969 L 970.667969 363.417969 L 970.667969 446.917969 L 928.917969 446.917969 Z M 928.917969 363.417969 " fill-opacity="1" fill-rule="nonzero"/></g><path fill="#ffe24c" d="M 887.167969 446.917969 L 928.917969 446.917969 L 928.917969 530.417969 L 887.167969 530.417969 Z M 887.167969 446.917969 " fill-opacity="1" fill-rule="nonzero"/><path fill="#ffe24c" d="M 845.417969 530.417969 L 887.167969 530.417969 L 887.167969 572.167969 L 845.417969 572.167969 Z M 845.417969 530.417969 " fill-opacity="1" fill-rule="nonzero"/><path fill="#ffe24c" d="M 553.167969 321.667969 L 553.167969 488.667969 L 594.917969 488.667969 L 594.917969 530.417969 L 636.667969 530.417969 L 636.667969 446.917969 L 594.917969 446.917969 L 594.917969 363.417969 L 636.667969 363.417969 L 636.667969 279.917969 L 594.917969 279.917969 L 594.917969 321.667969 Z M 553.167969 321.667969 " fill-opacity="1" fill-rule="nonzero"/><path fill="#ffe24c" d="M 636.667969 530.417969 L 803.667969 530.417969 L 803.667969 572.167969 L 636.667969 572.167969 Z M 636.667969 530.417969 " fill-opacity="1" fill-rule="nonzero"/><g clip-path="url(#6c48b2c35a)"><path fill="#da531f" d="M 469.667969 363.417969 L 511.417969 363.417969 L 511.417969 446.917969 L 469.667969 446.917969 Z M 469.667969 363.417969 " fill-opacity="1" fill-rule="nonzero"/></g><path fill="#da531f" d="M 511.417969 446.917969 L 553.167969 446.917969 L 553.167969 530.417969 L 511.417969 530.417969 Z M 511.417969 446.917969 " fill-opacity="1" fill-rule="nonzero"/><path fill="#da531f" d="M 553.167969 530.417969 L 594.917969 530.417969 L 594.917969 572.167969 L 553.167969 572.167969 Z M 553.167969 530.417969 " fill-opacity="1" fill-rule="nonzero"/><path fill="#da531f" d="M 594.917969 572.167969 L 678.417969 572.167969 L 678.417969 613.917969 L 594.917969 613.917969 Z M 594.917969 572.167969 " fill-opacity="1" fill-rule="nonzero"/><g clip-path="url(#ce4d3e31b6)"><path fill="#da531f" d="M 678.417969 613.917969 L 761.917969 613.917969 L 761.917969 655.667969 L 678.417969 655.667969 Z M 678.417969 613.917969 " fill-opacity="1" fill-rule="nonzero"/></g><path fill="#da531f" d="M 761.917969 572.167969 L 845.417969 572.167969 L 845.417969 613.917969 L 761.917969 613.917969 Z M 761.917969 572.167969 " fill-opacity="1" fill-rule="nonzero"/><path fill="#da531f" d="M 511.417969 279.917969 L 553.167969 279.917969 L 553.167969 363.417969 L 511.417969 363.417969 Z M 511.417969 279.917969 " fill-opacity="1" fill-rule="nonzero"/><path fill="#da531f" d="M 636.667969 238.167969 L 803.667969 238.167969 L 803.667969 279.917969 L 636.667969 279.917969 Z M 636.667969 238.167969 " fill-opacity="1" fill-rule="nonzero"/><path fill="#da531f" d="M 845.417969 321.667969 L 845.417969 279.917969 L 803.667969 279.917969 L 803.667969 363.417969 L 845.417969 363.417969 L 845.417969 446.917969 L 803.667969 446.917969 L 803.667969 530.417969 L 845.417969 530.417969 L 845.417969 488.667969 L 887.167969 488.667969 L 887.167969 321.667969 Z M 845.417969 321.667969 " fill-opacity="1" fill-rule="nonzero"/><path fill="#ef7d30" d="M 636.667969 363.417969 L 678.417969 363.417969 L 678.417969 446.917969 L 636.667969 446.917969 Z M 636.667969 363.417969 " fill-opacity="1" fill-rule="nonzero"/><path fill="#ef7d30" d="M 678.417969 446.917969 L 761.917969 446.917969 L 761.917969 488.667969 L 678.417969 488.667969 Z M 678.417969 446.917969 " fill-opacity="1" fill-rule="nonzero"/><path fill="#ffd524" d="M 678.417969 321.667969 L 761.917969 321.667969 L 761.917969 363.417969 L 678.417969 363.417969 Z M 678.417969 321.667969 " fill-opacity="1" fill-rule="nonzero"/><path fill="#ffd524" d="M 761.917969 363.417969 L 803.667969 363.417969 L 803.667969 446.917969 L 761.917969 446.917969 Z M 761.917969 363.417969 " fill-opacity="1" fill-rule="nonzero"/></svg>