<svg xmlns="http://www.w3.org/2000/svg" xmlns:xlink="http://www.w3.org/1999/xlink" width="1920" zoomAndPan="magnify" viewBox="0 0 1440 809.999993" height="1080" preserveAspectRatio="xMidYMid meet" version="1.0"><defs><clipPath id="4a20ec2075"><path d="M 408 175 L 888 175 L 888 685 L 408 685 Z M 408 175 " clip-rule="nonzero"/></clipPath><clipPath id="b733ba242a"><path d="M 496.828125 46.070312 L 1111.664062 186.871094 L 979.566406 763.6875 L 364.734375 622.886719 Z M 496.828125 46.070312 " clip-rule="nonzero"/></clipPath><clipPath id="dc860e20ff"><path d="M 496.828125 46.070312 L 1111.664062 186.871094 L 979.566406 763.6875 L 364.734375 622.886719 Z M 496.828125 46.070312 " clip-rule="nonzero"/></clipPath><clipPath id="1be3121e17"><path d="M 496.828125 46.070312 L 1111.664062 186.871094 L 979.566406 763.6875 L 364.734375 622.886719 Z M 496.828125 46.070312 " clip-rule="nonzero"/></clipPath><clipPath id="56a8cbc2fd"><path d="M 748 146 L 834 146 L 834 203 L 748 203 Z M 748 146 " clip-rule="nonzero"/></clipPath><clipPath id="e9a2b45c0d"><path d="M 496.828125 46.070312 L 1111.664062 186.871094 L 979.566406 763.6875 L 364.734375 622.886719 Z M 496.828125 46.070312 " clip-rule="nonzero"/></clipPath><clipPath id="44bc446c34"><path d="M 496.828125 46.070312 L 1111.664062 186.871094 L 979.566406 763.6875 L 364.734375 622.886719 Z M 496.828125 46.070312 " clip-rule="nonzero"/></clipPath><clipPath id="6d8bbbe8a3"><path d="M 496.828125 46.070312 L 1111.664062 186.871094 L 979.566406 763.6875 L 364.734375 622.886719 Z M 496.828125 46.070312 " clip-rule="nonzero"/></clipPath><clipPath id="a330d30edd"><path d="M 833 125 L 920 125 L 920 182 L 833 182 Z M 833 125 " clip-rule="nonzero"/></clipPath><clipPath id="51d1e681f7"><path d="M 496.828125 46.070312 L 1111.664062 186.871094 L 979.566406 763.6875 L 364.734375 622.886719 Z M 496.828125 46.070312 " clip-rule="nonzero"/></clipPath><clipPath id="90e1d75a78"><path d="M 496.828125 46.070312 L 1111.664062 186.871094 L 979.566406 763.6875 L 364.734375 622.886719 Z M 496.828125 46.070312 " clip-rule="nonzero"/></clipPath><clipPath id="b563953506"><path d="M 496.828125 46.070312 L 1111.664062 186.871094 L 979.566406 763.6875 L 364.734375 622.886719 Z M 496.828125 46.070312 " clip-rule="nonzero"/></clipPath><clipPath id="300db29c20"><path d="M 901 181 L 950 181 L 950 229 L 901 229 Z M 901 181 " clip-rule="nonzero"/></clipPath><clipPath id="6cbadf34d2"><path d="M 496.828125 46.070312 L 1111.664062 186.871094 L 979.566406 763.6875 L 364.734375 622.886719 Z M 496.828125 46.070312 " clip-rule="nonzero"/></clipPath><clipPath id="4eb2183026"><path d="M 496.828125 46.070312 L 1111.664062 186.871094 L 979.566406 763.6875 L 364.734375 622.886719 Z M 496.828125 46.070312 " clip-rule="nonzero"/></clipPath><clipPath id="12f293cf70"><path d="M 496.828125 46.070312 L 1111.664062 186.871094 L 979.566406 763.6875 L 364.734375 622.886719 Z M 496.828125 46.070312 " clip-rule="nonzero"/></clipPath><clipPath id="00fef50b94"><path d="M 922 228 L 1047 228 L 1047 371 L 922 371 Z M 922 228 " clip-rule="nonzero"/></clipPath><clipPath id="6d2d09c62d"><path d="M 496.828125 46.070312 L 1111.664062 186.871094 L 979.566406 763.6875 L 364.734375 622.886719 Z M 496.828125 46.070312 " clip-rule="nonzero"/></clipPath><clipPath id="eabd5a054b"><path d="M 496.828125 46.070312 L 1111.664062 186.871094 L 979.566406 763.6875 L 364.734375 622.886719 Z M 496.828125 46.070312 " clip-rule="nonzero"/></clipPath><clipPath id="e1ceb808ab"><path d="M 496.828125 46.070312 L 1111.664062 186.871094 L 979.566406 763.6875 L 364.734375 622.886719 Z M 496.828125 46.070312 " clip-rule="nonzero"/></clipPath><clipPath id="6d553f998d"><path d="M 905 344 L 953 344 L 953 392 L 905 392 Z M 905 344 " clip-rule="nonzero"/></clipPath><clipPath id="8ffde8fd32"><path d="M 496.828125 46.070312 L 1111.664062 186.871094 L 979.566406 763.6875 L 364.734375 622.886719 Z M 496.828125 46.070312 " clip-rule="nonzero"/></clipPath><clipPath id="badc68a680"><path d="M 496.828125 46.070312 L 1111.664062 186.871094 L 979.566406 763.6875 L 364.734375 622.886719 Z M 496.828125 46.070312 " clip-rule="nonzero"/></clipPath><clipPath id="56ebd5d582"><path d="M 496.828125 46.070312 L 1111.664062 186.871094 L 979.566406 763.6875 L 364.734375 622.886719 Z M 496.828125 46.070312 " clip-rule="nonzero"/></clipPath><clipPath id="eae8696d37"><path d="M 1020 370 L 1068 370 L 1068 418 L 1020 418 Z M 1020 370 " clip-rule="nonzero"/></clipPath><clipPath id="6950023b19"><path d="M 496.828125 46.070312 L 1111.664062 186.871094 L 979.566406 763.6875 L 364.734375 622.886719 Z M 496.828125 46.070312 " clip-rule="nonzero"/></clipPath><clipPath id="e426a7ceeb"><path d="M 496.828125 46.070312 L 1111.664062 186.871094 L 979.566406 763.6875 L 364.734375 622.886719 Z M 496.828125 46.070312 " clip-rule="nonzero"/></clipPath><clipPath id="86a7ea4c10"><path d="M 496.828125 46.070312 L 1111.664062 186.871094 L 979.566406 763.6875 L 364.734375 622.886719 Z M 496.828125 46.070312 " clip-rule="nonzero"/></clipPath><clipPath id="e8f7d4aea6"><path d="M 408 205 L 888 205 L 888 685 L 408 685 Z M 408 205 " clip-rule="nonzero"/></clipPath><clipPath id="7698e00541"><path d="M 496.828125 46.070312 L 1111.664062 186.871094 L 979.566406 763.6875 L 364.734375 622.886719 Z M 496.828125 46.070312 " clip-rule="nonzero"/></clipPath><clipPath id="d8ca4a0427"><path d="M 496.828125 46.070312 L 1111.664062 186.871094 L 979.566406 763.6875 L 364.734375 622.886719 Z M 496.828125 46.070312 " clip-rule="nonzero"/></clipPath><clipPath id="0823825bab"><path d="M 496.828125 46.070312 L 1111.664062 186.871094 L 979.566406 763.6875 L 364.734375 622.886719 Z M 496.828125 46.070312 " clip-rule="nonzero"/></clipPath><clipPath id="e4171d506a"><path d="M 408 353 L 465 353 L 465 440 L 408 440 Z M 408 353 " clip-rule="nonzero"/></clipPath><clipPath id="31c5289baa"><path d="M 496.828125 46.070312 L 1111.664062 186.871094 L 979.566406 763.6875 L 364.734375 622.886719 Z M 496.828125 46.070312 " clip-rule="nonzero"/></clipPath><clipPath id="5a1c966673"><path d="M 496.828125 46.070312 L 1111.664062 186.871094 L 979.566406 763.6875 L 364.734375 622.886719 Z M 496.828125 46.070312 " clip-rule="nonzero"/></clipPath><clipPath id="33b82dfee8"><path d="M 496.828125 46.070312 L 1111.664062 186.871094 L 979.566406 763.6875 L 364.734375 622.886719 Z M 496.828125 46.070312 " clip-rule="nonzero"/></clipPath><clipPath id="3ba0db5fbc"><path d="M 464 285 L 521 285 L 521 372 L 464 372 Z M 464 285 " clip-rule="nonzero"/></clipPath><clipPath id="d3eccc3b35"><path d="M 496.828125 46.070312 L 1111.664062 186.871094 L 979.566406 763.6875 L 364.734375 622.886719 Z M 496.828125 46.070312 " clip-rule="nonzero"/></clipPath><clipPath id="a7e228e9f5"><path d="M 496.828125 46.070312 L 1111.664062 186.871094 L 979.566406 763.6875 L 364.734375 622.886719 Z M 496.828125 46.070312 " clip-rule="nonzero"/></clipPath><clipPath id="9a54655482"><path d="M 496.828125 46.070312 L 1111.664062 186.871094 L 979.566406 763.6875 L 364.734375 622.886719 Z M 496.828125 46.070312 " clip-rule="nonzero"/></clipPath><clipPath id="1480597f78"><path d="M 429 439 L 486 439 L 486 525 L 429 525 Z M 429 439 " clip-rule="nonzero"/></clipPath><clipPath id="8a5ebbfec2"><path d="M 496.828125 46.070312 L 1111.664062 186.871094 L 979.566406 763.6875 L 364.734375 622.886719 Z M 496.828125 46.070312 " clip-rule="nonzero"/></clipPath><clipPath id="220ff3c399"><path d="M 496.828125 46.070312 L 1111.664062 186.871094 L 979.566406 763.6875 L 364.734375 622.886719 Z M 496.828125 46.070312 " clip-rule="nonzero"/></clipPath><clipPath id="0570baa98a"><path d="M 496.828125 46.070312 L 1111.664062 186.871094 L 979.566406 763.6875 L 364.734375 622.886719 Z M 496.828125 46.070312 " clip-rule="nonzero"/></clipPath><clipPath id="da001368b4"><path d="M 520 256 L 569 256 L 569 304 L 520 304 Z M 520 256 " clip-rule="nonzero"/></clipPath><clipPath id="75bcb81be0"><path d="M 496.828125 46.070312 L 1111.664062 186.871094 L 979.566406 763.6875 L 364.734375 622.886719 Z M 496.828125 46.070312 " clip-rule="nonzero"/></clipPath><clipPath id="6109a32f1b"><path d="M 496.828125 46.070312 L 1111.664062 186.871094 L 979.566406 763.6875 L 364.734375 622.886719 Z M 496.828125 46.070312 " clip-rule="nonzero"/></clipPath><clipPath id="516cc5371f"><path d="M 496.828125 46.070312 L 1111.664062 186.871094 L 979.566406 763.6875 L 364.734375 622.886719 Z M 496.828125 46.070312 " clip-rule="nonzero"/></clipPath><clipPath id="0a0c92ebdc"><path d="M 459 524 L 507 524 L 507 573 L 459 573 Z M 459 524 " clip-rule="nonzero"/></clipPath><clipPath id="5f94ee09fe"><path d="M 496.828125 46.070312 L 1111.664062 186.871094 L 979.566406 763.6875 L 364.734375 622.886719 Z M 496.828125 46.070312 " clip-rule="nonzero"/></clipPath><clipPath id="e8b4a153ca"><path d="M 496.828125 46.070312 L 1111.664062 186.871094 L 979.566406 763.6875 L 364.734375 622.886719 Z M 496.828125 46.070312 " clip-rule="nonzero"/></clipPath><clipPath id="75f617ae7e"><path d="M 496.828125 46.070312 L 1111.664062 186.871094 L 979.566406 763.6875 L 364.734375 622.886719 Z M 496.828125 46.070312 " clip-rule="nonzero"/></clipPath><clipPath id="0b88868676"><path d="M 488 572 L 575 572 L 575 629 L 488 629 Z M 488 572 " clip-rule="nonzero"/></clipPath><clipPath id="1cc8e61ef1"><path d="M 496.828125 46.070312 L 1111.664062 186.871094 L 979.566406 763.6875 L 364.734375 622.886719 Z M 496.828125 46.070312 " clip-rule="nonzero"/></clipPath><clipPath id="56a04023bd"><path d="M 496.828125 46.070312 L 1111.664062 186.871094 L 979.566406 763.6875 L 364.734375 622.886719 Z M 496.828125 46.070312 " clip-rule="nonzero"/></clipPath><clipPath id="c70220501c"><path d="M 496.828125 46.070312 L 1111.664062 186.871094 L 979.566406 763.6875 L 364.734375 622.886719 Z M 496.828125 46.070312 " clip-rule="nonzero"/></clipPath><clipPath id="6236862da4"><path d="M 556 628 L 643 628 L 643 685 L 556 685 Z M 556 628 " clip-rule="nonzero"/></clipPath><clipPath id="80e4842940"><path d="M 496.828125 46.070312 L 1111.664062 186.871094 L 979.566406 763.6875 L 364.734375 622.886719 Z M 496.828125 46.070312 " clip-rule="nonzero"/></clipPath><clipPath id="6ebdd79954"><path d="M 496.828125 46.070312 L 1111.664062 186.871094 L 979.566406 763.6875 L 364.734375 622.886719 Z M 496.828125 46.070312 " clip-rule="nonzero"/></clipPath><clipPath id="0bfaae15e2"><path d="M 496.828125 46.070312 L 1111.664062 186.871094 L 979.566406 763.6875 L 364.734375 622.886719 Z M 496.828125 46.070312 " clip-rule="nonzero"/></clipPath><clipPath id="219743b92b"><path d="M 642 607 L 729 607 L 729 664 L 642 664 Z M 642 607 " clip-rule="nonzero"/></clipPath><clipPath id="4800a7767d"><path d="M 496.828125 46.070312 L 1111.664062 186.871094 L 979.566406 763.6875 L 364.734375 622.886719 Z M 496.828125 46.070312 " clip-rule="nonzero"/></clipPath><clipPath id="8c18645cd0"><path d="M 496.828125 46.070312 L 1111.664062 186.871094 L 979.566406 763.6875 L 364.734375 622.886719 Z M 496.828125 46.070312 " clip-rule="nonzero"/></clipPath><clipPath id="7384f610f1"><path d="M 496.828125 46.070312 L 1111.664062 186.871094 L 979.566406 763.6875 L 364.734375 622.886719 Z M 496.828125 46.070312 " clip-rule="nonzero"/></clipPath><clipPath id="3a3e27e062"><path d="M 728 586 L 776 586 L 776 634 L 728 634 Z M 728 586 " clip-rule="nonzero"/></clipPath><clipPath id="9f0e1ec5a0"><path d="M 496.828125 46.070312 L 1111.664062 186.871094 L 979.566406 763.6875 L 364.734375 622.886719 Z M 496.828125 46.070312 " clip-rule="nonzero"/></clipPath><clipPath id="09cb2e7dd8"><path d="M 496.828125 46.070312 L 1111.664062 186.871094 L 979.566406 763.6875 L 364.734375 622.886719 Z M 496.828125 46.070312 " clip-rule="nonzero"/></clipPath><clipPath id="ed01a35987"><path d="M 496.828125 46.070312 L 1111.664062 186.871094 L 979.566406 763.6875 L 364.734375 622.886719 Z M 496.828125 46.070312 " clip-rule="nonzero"/></clipPath><clipPath id="2a96f49662"><path d="M 447 362 L 504 362 L 504 449 L 447 449 Z M 447 362 " clip-rule="nonzero"/></clipPath><clipPath id="35eb8d94c6"><path d="M 496.828125 46.070312 L 1111.664062 186.871094 L 979.566406 763.6875 L 364.734375 622.886719 Z M 496.828125 46.070312 " clip-rule="nonzero"/></clipPath><clipPath id="b8857eaf1b"><path d="M 496.828125 46.070312 L 1111.664062 186.871094 L 979.566406 763.6875 L 364.734375 622.886719 Z M 496.828125 46.070312 " clip-rule="nonzero"/></clipPath><clipPath id="345365eb23"><path d="M 496.828125 46.070312 L 1111.664062 186.871094 L 979.566406 763.6875 L 364.734375 622.886719 Z M 496.828125 46.070312 " clip-rule="nonzero"/></clipPath><clipPath id="2f18bd7909"><path d="M 468 448 L 525 448 L 525 534 L 468 534 Z M 468 448 " clip-rule="nonzero"/></clipPath><clipPath id="fa619a684f"><path d="M 496.828125 46.070312 L 1111.664062 186.871094 L 979.566406 763.6875 L 364.734375 622.886719 Z M 496.828125 46.070312 " clip-rule="nonzero"/></clipPath><clipPath id="1a5d491832"><path d="M 496.828125 46.070312 L 1111.664062 186.871094 L 979.566406 763.6875 L 364.734375 622.886719 Z M 496.828125 46.070312 " clip-rule="nonzero"/></clipPath><clipPath id="bd5678c353"><path d="M 496.828125 46.070312 L 1111.664062 186.871094 L 979.566406 763.6875 L 364.734375 622.886719 Z M 496.828125 46.070312 " clip-rule="nonzero"/></clipPath><clipPath id="5e9b30dd86"><path d="M 497 533 L 584 533 L 584 590 L 497 590 Z M 497 533 " clip-rule="nonzero"/></clipPath><clipPath id="e074b4963e"><path d="M 496.828125 46.070312 L 1111.664062 186.871094 L 979.566406 763.6875 L 364.734375 622.886719 Z M 496.828125 46.070312 " clip-rule="nonzero"/></clipPath><clipPath id="779868e3c8"><path d="M 496.828125 46.070312 L 1111.664062 186.871094 L 979.566406 763.6875 L 364.734375 622.886719 Z M 496.828125 46.070312 " clip-rule="nonzero"/></clipPath><clipPath id="bcea45a7d7"><path d="M 496.828125 46.070312 L 1111.664062 186.871094 L 979.566406 763.6875 L 364.734375 622.886719 Z M 496.828125 46.070312 " clip-rule="nonzero"/></clipPath><clipPath id="3c59617644"><path d="M 565 589 L 652 589 L 652 646 L 565 646 Z M 565 589 " clip-rule="nonzero"/></clipPath><clipPath id="0e91c51184"><path d="M 496.828125 46.070312 L 1111.664062 186.871094 L 979.566406 763.6875 L 364.734375 622.886719 Z M 496.828125 46.070312 " clip-rule="nonzero"/></clipPath><clipPath id="af9e956ce5"><path d="M 496.828125 46.070312 L 1111.664062 186.871094 L 979.566406 763.6875 L 364.734375 622.886719 Z M 496.828125 46.070312 " clip-rule="nonzero"/></clipPath><clipPath id="ffad6645b4"><path d="M 496.828125 46.070312 L 1111.664062 186.871094 L 979.566406 763.6875 L 364.734375 622.886719 Z M 496.828125 46.070312 " clip-rule="nonzero"/></clipPath><clipPath id="a5d0634dcd"><path d="M 651 568 L 738 568 L 738 626 L 651 626 Z M 651 568 " clip-rule="nonzero"/></clipPath><clipPath id="ec0f4d28af"><path d="M 496.828125 46.070312 L 1111.664062 186.871094 L 979.566406 763.6875 L 364.734375 622.886719 Z M 496.828125 46.070312 " clip-rule="nonzero"/></clipPath><clipPath id="f196522e58"><path d="M 496.828125 46.070312 L 1111.664062 186.871094 L 979.566406 763.6875 L 364.734375 622.886719 Z M 496.828125 46.070312 " clip-rule="nonzero"/></clipPath><clipPath id="d812291fe9"><path d="M 496.828125 46.070312 L 1111.664062 186.871094 L 979.566406 763.6875 L 364.734375 622.886719 Z M 496.828125 46.070312 " clip-rule="nonzero"/></clipPath><clipPath id="7cdbf4a06e"><path d="M 737 548 L 823 548 L 823 605 L 737 605 Z M 737 548 " clip-rule="nonzero"/></clipPath><clipPath id="865965eae0"><path d="M 496.828125 46.070312 L 1111.664062 186.871094 L 979.566406 763.6875 L 364.734375 622.886719 Z M 496.828125 46.070312 " clip-rule="nonzero"/></clipPath><clipPath id="57b5eb90bc"><path d="M 496.828125 46.070312 L 1111.664062 186.871094 L 979.566406 763.6875 L 364.734375 622.886719 Z M 496.828125 46.070312 " clip-rule="nonzero"/></clipPath><clipPath id="94046e5b14"><path d="M 496.828125 46.070312 L 1111.664062 186.871094 L 979.566406 763.6875 L 364.734375 622.886719 Z M 496.828125 46.070312 " clip-rule="nonzero"/></clipPath><clipPath id="5be65ca04a"><path d="M 503 294 L 560 294 L 560 381 L 503 381 Z M 503 294 " clip-rule="nonzero"/></clipPath><clipPath id="6e6e915562"><path d="M 496.828125 46.070312 L 1111.664062 186.871094 L 979.566406 763.6875 L 364.734375 622.886719 Z M 496.828125 46.070312 " clip-rule="nonzero"/></clipPath><clipPath id="3cfa1e026e"><path d="M 496.828125 46.070312 L 1111.664062 186.871094 L 979.566406 763.6875 L 364.734375 622.886719 Z M 496.828125 46.070312 " clip-rule="nonzero"/></clipPath><clipPath id="7a5284f782"><path d="M 496.828125 46.070312 L 1111.664062 186.871094 L 979.566406 763.6875 L 364.734375 622.886719 Z M 496.828125 46.070312 " clip-rule="nonzero"/></clipPath><clipPath id="349376d758"><path d="M 559 226 L 616 226 L 616 313 L 559 313 Z M 559 226 " clip-rule="nonzero"/></clipPath><clipPath id="faa487b093"><path d="M 496.828125 46.070312 L 1111.664062 186.871094 L 979.566406 763.6875 L 364.734375 622.886719 Z M 496.828125 46.070312 " clip-rule="nonzero"/></clipPath><clipPath id="8325f9cec3"><path d="M 496.828125 46.070312 L 1111.664062 186.871094 L 979.566406 763.6875 L 364.734375 622.886719 Z M 496.828125 46.070312 " clip-rule="nonzero"/></clipPath><clipPath id="57bddfb913"><path d="M 496.828125 46.070312 L 1111.664062 186.871094 L 979.566406 763.6875 L 364.734375 622.886719 Z M 496.828125 46.070312 " clip-rule="nonzero"/></clipPath><clipPath id="eca48f7e6c"><path d="M 532 380 L 581 380 L 581 428 L 532 428 Z M 532 380 " clip-rule="nonzero"/></clipPath><clipPath id="7468478889"><path d="M 496.828125 46.070312 L 1111.664062 186.871094 L 979.566406 763.6875 L 364.734375 622.886719 Z M 496.828125 46.070312 " clip-rule="nonzero"/></clipPath><clipPath id="ae832401d4"><path d="M 496.828125 46.070312 L 1111.664062 186.871094 L 979.566406 763.6875 L 364.734375 622.886719 Z M 496.828125 46.070312 " clip-rule="nonzero"/></clipPath><clipPath id="333c597303"><path d="M 496.828125 46.070312 L 1111.664062 186.871094 L 979.566406 763.6875 L 364.734375 622.886719 Z M 496.828125 46.070312 " clip-rule="nonzero"/></clipPath><clipPath id="3b8a12e4af"><path d="M 553 465 L 601 465 L 601 513 L 553 513 Z M 553 465 " clip-rule="nonzero"/></clipPath><clipPath id="2c280cdd05"><path d="M 496.828125 46.070312 L 1111.664062 186.871094 L 979.566406 763.6875 L 364.734375 622.886719 Z M 496.828125 46.070312 " clip-rule="nonzero"/></clipPath><clipPath id="a5301cc79d"><path d="M 496.828125 46.070312 L 1111.664062 186.871094 L 979.566406 763.6875 L 364.734375 622.886719 Z M 496.828125 46.070312 " clip-rule="nonzero"/></clipPath><clipPath id="e56444f14c"><path d="M 496.828125 46.070312 L 1111.664062 186.871094 L 979.566406 763.6875 L 364.734375 622.886719 Z M 496.828125 46.070312 " clip-rule="nonzero"/></clipPath><clipPath id="b44f5c1909"><path d="M 506 495 L 554 495 L 554 543 L 506 543 Z M 506 495 " clip-rule="nonzero"/></clipPath><clipPath id="73b047ddb9"><path d="M 496.828125 46.070312 L 1111.664062 186.871094 L 979.566406 763.6875 L 364.734375 622.886719 Z M 496.828125 46.070312 " clip-rule="nonzero"/></clipPath><clipPath id="5171b3ae89"><path d="M 496.828125 46.070312 L 1111.664062 186.871094 L 979.566406 763.6875 L 364.734375 622.886719 Z M 496.828125 46.070312 " clip-rule="nonzero"/></clipPath><clipPath id="547c3347da"><path d="M 496.828125 46.070312 L 1111.664062 186.871094 L 979.566406 763.6875 L 364.734375 622.886719 Z M 496.828125 46.070312 " clip-rule="nonzero"/></clipPath><clipPath id="528aa06d25"><path d="M 621 521 L 669 521 L 669 569 L 621 569 Z M 621 521 " clip-rule="nonzero"/></clipPath><clipPath id="24f8bf4ae6"><path d="M 496.828125 46.070312 L 1111.664062 186.871094 L 979.566406 763.6875 L 364.734375 622.886719 Z M 496.828125 46.070312 " clip-rule="nonzero"/></clipPath><clipPath id="f0b93b97b4"><path d="M 496.828125 46.070312 L 1111.664062 186.871094 L 979.566406 763.6875 L 364.734375 622.886719 Z M 496.828125 46.070312 " clip-rule="nonzero"/></clipPath><clipPath id="4880617d59"><path d="M 496.828125 46.070312 L 1111.664062 186.871094 L 979.566406 763.6875 L 364.734375 622.886719 Z M 496.828125 46.070312 " clip-rule="nonzero"/></clipPath><clipPath id="f484786588"><path d="M 707 500 L 755 500 L 755 549 L 707 549 Z M 707 500 " clip-rule="nonzero"/></clipPath><clipPath id="03810ccca0"><path d="M 496.828125 46.070312 L 1111.664062 186.871094 L 979.566406 763.6875 L 364.734375 622.886719 Z M 496.828125 46.070312 " clip-rule="nonzero"/></clipPath><clipPath id="b59f6e01ab"><path d="M 496.828125 46.070312 L 1111.664062 186.871094 L 979.566406 763.6875 L 364.734375 622.886719 Z M 496.828125 46.070312 " clip-rule="nonzero"/></clipPath><clipPath id="f113418ed2"><path d="M 496.828125 46.070312 L 1111.664062 186.871094 L 979.566406 763.6875 L 364.734375 622.886719 Z M 496.828125 46.070312 " clip-rule="nonzero"/></clipPath><clipPath id="0aa6787f23"><path d="M 784 518 L 832 518 L 832 566 L 784 566 Z M 784 518 " clip-rule="nonzero"/></clipPath><clipPath id="a22b385129"><path d="M 496.828125 46.070312 L 1111.664062 186.871094 L 979.566406 763.6875 L 364.734375 622.886719 Z M 496.828125 46.070312 " clip-rule="nonzero"/></clipPath><clipPath id="e3fb3c6df2"><path d="M 496.828125 46.070312 L 1111.664062 186.871094 L 979.566406 763.6875 L 364.734375 622.886719 Z M 496.828125 46.070312 " clip-rule="nonzero"/></clipPath><clipPath id="e8dec67105"><path d="M 496.828125 46.070312 L 1111.664062 186.871094 L 979.566406 763.6875 L 364.734375 622.886719 Z M 496.828125 46.070312 " clip-rule="nonzero"/></clipPath><clipPath id="7cf898e0c6"><path d="M 831 488 L 879 488 L 879 537 L 831 537 Z M 831 488 " clip-rule="nonzero"/></clipPath><clipPath id="a9c656a219"><path d="M 496.828125 46.070312 L 1111.664062 186.871094 L 979.566406 763.6875 L 364.734375 622.886719 Z M 496.828125 46.070312 " clip-rule="nonzero"/></clipPath><clipPath id="1c687414b9"><path d="M 496.828125 46.070312 L 1111.664062 186.871094 L 979.566406 763.6875 L 364.734375 622.886719 Z M 496.828125 46.070312 " clip-rule="nonzero"/></clipPath><clipPath id="b3b3b9021b"><path d="M 496.828125 46.070312 L 1111.664062 186.871094 L 979.566406 763.6875 L 364.734375 622.886719 Z M 496.828125 46.070312 " clip-rule="nonzero"/></clipPath><clipPath id="04dc8b849c"><path d="M 801 441 L 850 441 L 850 489 L 801 489 Z M 801 441 " clip-rule="nonzero"/></clipPath><clipPath id="7ff3b7ba5c"><path d="M 496.828125 46.070312 L 1111.664062 186.871094 L 979.566406 763.6875 L 364.734375 622.886719 Z M 496.828125 46.070312 " clip-rule="nonzero"/></clipPath><clipPath id="67fdf1671d"><path d="M 496.828125 46.070312 L 1111.664062 186.871094 L 979.566406 763.6875 L 364.734375 622.886719 Z M 496.828125 46.070312 " clip-rule="nonzero"/></clipPath><clipPath id="9dad81503d"><path d="M 496.828125 46.070312 L 1111.664062 186.871094 L 979.566406 763.6875 L 364.734375 622.886719 Z M 496.828125 46.070312 " clip-rule="nonzero"/></clipPath><clipPath id="e9761c11fd"><path d="M 695 300 L 761 300 L 761 425 L 695 425 Z M 695 300 " clip-rule="nonzero"/></clipPath><clipPath id="1402c724e4"><path d="M 496.828125 46.070312 L 1111.664062 186.871094 L 979.566406 763.6875 L 364.734375 622.886719 Z M 496.828125 46.070312 " clip-rule="nonzero"/></clipPath><clipPath id="3bb11edfa7"><path d="M 496.828125 46.070312 L 1111.664062 186.871094 L 979.566406 763.6875 L 364.734375 622.886719 Z M 496.828125 46.070312 " clip-rule="nonzero"/></clipPath><clipPath id="6e313f6ff3"><path d="M 496.828125 46.070312 L 1111.664062 186.871094 L 979.566406 763.6875 L 364.734375 622.886719 Z M 496.828125 46.070312 " clip-rule="nonzero"/></clipPath><clipPath id="a0db9dd931"><path d="M 665 329 L 790 329 L 790 395 L 665 395 Z M 665 329 " clip-rule="nonzero"/></clipPath><clipPath id="53ec6e3211"><path d="M 496.828125 46.070312 L 1111.664062 186.871094 L 979.566406 763.6875 L 364.734375 622.886719 Z M 496.828125 46.070312 " clip-rule="nonzero"/></clipPath><clipPath id="aeee12bcc9"><path d="M 496.828125 46.070312 L 1111.664062 186.871094 L 979.566406 763.6875 L 364.734375 622.886719 Z M 496.828125 46.070312 " clip-rule="nonzero"/></clipPath><clipPath id="0d07937a73"><path d="M 496.828125 46.070312 L 1111.664062 186.871094 L 979.566406 763.6875 L 364.734375 622.886719 Z M 496.828125 46.070312 " clip-rule="nonzero"/></clipPath><clipPath id="ca4b787a7a"><path d="M 704 338 L 752 338 L 752 386 L 704 386 Z M 704 338 " clip-rule="nonzero"/></clipPath><clipPath id="717010b6bc"><path d="M 496.828125 46.070312 L 1111.664062 186.871094 L 979.566406 763.6875 L 364.734375 622.886719 Z M 496.828125 46.070312 " clip-rule="nonzero"/></clipPath><clipPath id="3a855f7dd7"><path d="M 496.828125 46.070312 L 1111.664062 186.871094 L 979.566406 763.6875 L 364.734375 622.886719 Z M 496.828125 46.070312 " clip-rule="nonzero"/></clipPath><clipPath id="8f70cda975"><path d="M 496.828125 46.070312 L 1111.664062 186.871094 L 979.566406 763.6875 L 364.734375 622.886719 Z M 496.828125 46.070312 " clip-rule="nonzero"/></clipPath><clipPath id="5ff4df768d"><path d="M 700 175 L 749 175 L 749 224 L 700 224 Z M 700 175 " clip-rule="nonzero"/></clipPath><clipPath id="88e60bebc3"><path d="M 496.828125 46.070312 L 1111.664062 186.871094 L 979.566406 763.6875 L 364.734375 622.886719 Z M 496.828125 46.070312 " clip-rule="nonzero"/></clipPath><clipPath id="b1daf336d9"><path d="M 496.828125 46.070312 L 1111.664062 186.871094 L 979.566406 763.6875 L 364.734375 622.886719 Z M 496.828125 46.070312 " clip-rule="nonzero"/></clipPath><clipPath id="42b462685c"><path d="M 496.828125 46.070312 L 1111.664062 186.871094 L 979.566406 763.6875 L 364.734375 622.886719 Z M 496.828125 46.070312 " clip-rule="nonzero"/></clipPath><clipPath id="51b881ac8e"><path d="M 748 146 L 834 146 L 834 203 L 748 203 Z M 748 146 " clip-rule="nonzero"/></clipPath><clipPath id="1725f13db6"><path d="M 496.828125 46.070312 L 1111.664062 186.871094 L 979.566406 763.6875 L 364.734375 622.886719 Z M 496.828125 46.070312 " clip-rule="nonzero"/></clipPath><clipPath id="1753aa9b7f"><path d="M 496.828125 46.070312 L 1111.664062 186.871094 L 979.566406 763.6875 L 364.734375 622.886719 Z M 496.828125 46.070312 " clip-rule="nonzero"/></clipPath><clipPath id="9095e28cbe"><path d="M 496.828125 46.070312 L 1111.664062 186.871094 L 979.566406 763.6875 L 364.734375 622.886719 Z M 496.828125 46.070312 " clip-rule="nonzero"/></clipPath><clipPath id="5572c54822"><path d="M 833 125 L 920 125 L 920 182 L 833 182 Z M 833 125 " clip-rule="nonzero"/></clipPath><clipPath id="e362b8982f"><path d="M 496.828125 46.070312 L 1111.664062 186.871094 L 979.566406 763.6875 L 364.734375 622.886719 Z M 496.828125 46.070312 " clip-rule="nonzero"/></clipPath><clipPath id="1885f28da4"><path d="M 496.828125 46.070312 L 1111.664062 186.871094 L 979.566406 763.6875 L 364.734375 622.886719 Z M 496.828125 46.070312 " clip-rule="nonzero"/></clipPath><clipPath id="f04d9d824c"><path d="M 496.828125 46.070312 L 1111.664062 186.871094 L 979.566406 763.6875 L 364.734375 622.886719 Z M 496.828125 46.070312 " clip-rule="nonzero"/></clipPath><clipPath id="f126c1bec3"><path d="M 901 181 L 950 181 L 950 229 L 901 229 Z M 901 181 " clip-rule="nonzero"/></clipPath><clipPath id="6423644099"><path d="M 496.828125 46.070312 L 1111.664062 186.871094 L 979.566406 763.6875 L 364.734375 622.886719 Z M 496.828125 46.070312 " clip-rule="nonzero"/></clipPath><clipPath id="6599767362"><path d="M 496.828125 46.070312 L 1111.664062 186.871094 L 979.566406 763.6875 L 364.734375 622.886719 Z M 496.828125 46.070312 " clip-rule="nonzero"/></clipPath><clipPath id="33734d4969"><path d="M 496.828125 46.070312 L 1111.664062 186.871094 L 979.566406 763.6875 L 364.734375 622.886719 Z M 496.828125 46.070312 " clip-rule="nonzero"/></clipPath><clipPath id="f11ab360a8"><path d="M 922 228 L 1018 228 L 1018 324 L 922 324 Z M 922 228 " clip-rule="nonzero"/></clipPath><clipPath id="f8e5f31511"><path d="M 496.828125 46.070312 L 1111.664062 186.871094 L 979.566406 763.6875 L 364.734375 622.886719 Z M 496.828125 46.070312 " clip-rule="nonzero"/></clipPath><clipPath id="eab867472d"><path d="M 496.828125 46.070312 L 1111.664062 186.871094 L 979.566406 763.6875 L 364.734375 622.886719 Z M 496.828125 46.070312 " clip-rule="nonzero"/></clipPath><clipPath id="bad4e62975"><path d="M 496.828125 46.070312 L 1111.664062 186.871094 L 979.566406 763.6875 L 364.734375 622.886719 Z M 496.828125 46.070312 " clip-rule="nonzero"/></clipPath><clipPath id="3a6b171e14"><path d="M 952 275 L 1047 275 L 1047 371 L 952 371 Z M 952 275 " clip-rule="nonzero"/></clipPath><clipPath id="21fb27395a"><path d="M 496.828125 46.070312 L 1111.664062 186.871094 L 979.566406 763.6875 L 364.734375 622.886719 Z M 496.828125 46.070312 " clip-rule="nonzero"/></clipPath><clipPath id="b3ea7aec25"><path d="M 496.828125 46.070312 L 1111.664062 186.871094 L 979.566406 763.6875 L 364.734375 622.886719 Z M 496.828125 46.070312 " clip-rule="nonzero"/></clipPath><clipPath id="d2dc52b639"><path d="M 496.828125 46.070312 L 1111.664062 186.871094 L 979.566406 763.6875 L 364.734375 622.886719 Z M 496.828125 46.070312 " clip-rule="nonzero"/></clipPath><clipPath id="eb693b3d07"><path d="M 905 344 L 953 344 L 953 392 L 905 392 Z M 905 344 " clip-rule="nonzero"/></clipPath><clipPath id="94f286e7f8"><path d="M 496.828125 46.070312 L 1111.664062 186.871094 L 979.566406 763.6875 L 364.734375 622.886719 Z M 496.828125 46.070312 " clip-rule="nonzero"/></clipPath><clipPath id="aa4960f7bd"><path d="M 496.828125 46.070312 L 1111.664062 186.871094 L 979.566406 763.6875 L 364.734375 622.886719 Z M 496.828125 46.070312 " clip-rule="nonzero"/></clipPath><clipPath id="fb76c83a28"><path d="M 496.828125 46.070312 L 1111.664062 186.871094 L 979.566406 763.6875 L 364.734375 622.886719 Z M 496.828125 46.070312 " clip-rule="nonzero"/></clipPath><clipPath id="9b99e18b6b"><path d="M 1020 370 L 1068 370 L 1068 418 L 1020 418 Z M 1020 370 " clip-rule="nonzero"/></clipPath><clipPath id="f52eddb168"><path d="M 496.828125 46.070312 L 1111.664062 186.871094 L 979.566406 763.6875 L 364.734375 622.886719 Z M 496.828125 46.070312 " clip-rule="nonzero"/></clipPath><clipPath id="91de096215"><path d="M 496.828125 46.070312 L 1111.664062 186.871094 L 979.566406 763.6875 L 364.734375 622.886719 Z M 496.828125 46.070312 " clip-rule="nonzero"/></clipPath><clipPath id="95d199780a"><path d="M 496.828125 46.070312 L 1111.664062 186.871094 L 979.566406 763.6875 L 364.734375 622.886719 Z M 496.828125 46.070312 " clip-rule="nonzero"/></clipPath><clipPath id="fcfd97abb9"><path d="M 931 228 L 979 228 L 979 276 L 931 276 Z M 931 228 " clip-rule="nonzero"/></clipPath><clipPath id="b7f65c6a6c"><path d="M 496.828125 46.070312 L 1111.664062 186.871094 L 979.566406 763.6875 L 364.734375 622.886719 Z M 496.828125 46.070312 " clip-rule="nonzero"/></clipPath><clipPath id="639d069fea"><path d="M 496.828125 46.070312 L 1111.664062 186.871094 L 979.566406 763.6875 L 364.734375 622.886719 Z M 496.828125 46.070312 " clip-rule="nonzero"/></clipPath><clipPath id="c62cc0f1d7"><path d="M 496.828125 46.070312 L 1111.664062 186.871094 L 979.566406 763.6875 L 364.734375 622.886719 Z M 496.828125 46.070312 " clip-rule="nonzero"/></clipPath><clipPath id="6cdd0d0f08"><path d="M 961 275 L 1009 275 L 1009 324 L 961 324 Z M 961 275 " clip-rule="nonzero"/></clipPath><clipPath id="e53340a9e5"><path d="M 496.828125 46.070312 L 1111.664062 186.871094 L 979.566406 763.6875 L 364.734375 622.886719 Z M 496.828125 46.070312 " clip-rule="nonzero"/></clipPath><clipPath id="c07504e742"><path d="M 496.828125 46.070312 L 1111.664062 186.871094 L 979.566406 763.6875 L 364.734375 622.886719 Z M 496.828125 46.070312 " clip-rule="nonzero"/></clipPath><clipPath id="209ecd573e"><path d="M 496.828125 46.070312 L 1111.664062 186.871094 L 979.566406 763.6875 L 364.734375 622.886719 Z M 496.828125 46.070312 " clip-rule="nonzero"/></clipPath><clipPath id="9d5ed4f306"><path d="M 653 205 L 740 205 L 740 262 L 653 262 Z M 653 205 " clip-rule="nonzero"/></clipPath><clipPath id="a3038acb46"><path d="M 496.828125 46.070312 L 1111.664062 186.871094 L 979.566406 763.6875 L 364.734375 622.886719 Z M 496.828125 46.070312 " clip-rule="nonzero"/></clipPath><clipPath id="c9de636723"><path d="M 496.828125 46.070312 L 1111.664062 186.871094 L 979.566406 763.6875 L 364.734375 622.886719 Z M 496.828125 46.070312 " clip-rule="nonzero"/></clipPath><clipPath id="85b263b065"><path d="M 496.828125 46.070312 L 1111.664062 186.871094 L 979.566406 763.6875 L 364.734375 622.886719 Z M 496.828125 46.070312 " clip-rule="nonzero"/></clipPath><clipPath id="f2c68d5487"><path d="M 653 205 L 701 205 L 701 253 L 653 253 Z M 653 205 " clip-rule="nonzero"/></clipPath><clipPath id="1b35541c20"><path d="M 496.828125 46.070312 L 1111.664062 186.871094 L 979.566406 763.6875 L 364.734375 622.886719 Z M 496.828125 46.070312 " clip-rule="nonzero"/></clipPath><clipPath id="900ba5e939"><path d="M 496.828125 46.070312 L 1111.664062 186.871094 L 979.566406 763.6875 L 364.734375 622.886719 Z M 496.828125 46.070312 " clip-rule="nonzero"/></clipPath><clipPath id="efb01ae267"><path d="M 496.828125 46.070312 L 1111.664062 186.871094 L 979.566406 763.6875 L 364.734375 622.886719 Z M 496.828125 46.070312 " clip-rule="nonzero"/></clipPath></defs><g clip-path="url(#4a20ec2075)"><g clip-path="url(#b733ba242a)"><g clip-path="url(#dc860e20ff)"><g clip-path="url(#1be3121e17)"><path fill="#2e1b5b" d="M 700.941406 214.359375 L 662.515625 205.5625 L 653.714844 243.988281 L 576.863281 226.386719 L 568.0625 264.8125 L 529.636719 256.011719 L 520.835938 294.441406 L 482.40625 285.640625 L 464.808594 362.492188 L 426.382812 353.691406 L 408.78125 430.542969 L 447.207031 439.34375 L 429.609375 516.199219 L 468.035156 524.996094 L 459.234375 563.425781 L 497.664062 572.222656 L 488.863281 610.648438 L 565.71875 628.25 L 556.917969 666.675781 L 633.773438 684.277344 L 642.570312 645.851562 L 719.425781 663.449219 L 728.226562 625.023438 L 766.652344 633.824219 L 775.453125 595.398438 L 813.878906 604.199219 L 831.480469 527.347656 L 869.90625 536.144531 L 887.507812 459.292969 L 849.078125 450.492188 L 866.679688 373.640625 L 828.25 364.839844 L 837.050781 326.414062 L 798.625 317.613281 L 807.425781 279.1875 L 730.570312 261.585938 L 748.171875 184.734375 L 709.742188 175.933594 Z M 700.941406 214.359375 " fill-opacity="1" fill-rule="nonzero"/></g></g></g></g><g clip-path="url(#56a8cbc2fd)"><g clip-path="url(#e9a2b45c0d)"><g clip-path="url(#44bc446c34)"><g clip-path="url(#6d8bbbe8a3)"><path fill="#2e1b5b" d="M 756.96875 146.308594 L 833.824219 163.910156 L 825.023438 202.335938 L 748.171875 184.734375 Z M 756.96875 146.308594 " fill-opacity="1" fill-rule="nonzero"/></g></g></g></g><g clip-path="url(#a330d30edd)"><g clip-path="url(#51d1e681f7)"><g clip-path="url(#90e1d75a78)"><g clip-path="url(#b563953506)"><path fill="#2e1b5b" d="M 842.625 125.484375 L 919.476562 143.082031 L 910.679688 181.507812 L 833.824219 163.910156 Z M 842.625 125.484375 " fill-opacity="1" fill-rule="nonzero"/></g></g></g></g><g clip-path="url(#300db29c20)"><g clip-path="url(#6cbadf34d2)"><g clip-path="url(#4eb2183026)"><g clip-path="url(#12f293cf70)"><path fill="#2e1b5b" d="M 910.679688 181.507812 L 949.105469 190.308594 L 940.304688 228.734375 L 901.878906 219.933594 Z M 910.679688 181.507812 " fill-opacity="1" fill-rule="nonzero"/></g></g></g></g><g clip-path="url(#00fef50b94)"><g clip-path="url(#6d2d09c62d)"><g clip-path="url(#eabd5a054b)"><g clip-path="url(#e1ceb808ab)"><path fill="#2e1b5b" d="M 1008.359375 284.761719 L 1017.160156 246.335938 L 978.734375 237.535156 L 940.304688 228.734375 L 931.503906 267.160156 L 922.707031 305.589844 L 961.132812 314.386719 L 952.332031 352.8125 L 1029.1875 370.414062 L 1046.789062 293.5625 Z M 1008.359375 284.761719 " fill-opacity="1" fill-rule="nonzero"/></g></g></g></g><g clip-path="url(#6d553f998d)"><g clip-path="url(#8ffde8fd32)"><g clip-path="url(#badc68a680)"><g clip-path="url(#56ebd5d582)"><path fill="#2e1b5b" d="M 913.90625 344.015625 L 952.332031 352.8125 L 943.535156 391.242188 L 905.105469 382.441406 Z M 913.90625 344.015625 " fill-opacity="1" fill-rule="nonzero"/></g></g></g></g><g clip-path="url(#eae8696d37)"><g clip-path="url(#6950023b19)"><g clip-path="url(#e426a7ceeb)"><g clip-path="url(#86a7ea4c10)"><path fill="#2e1b5b" d="M 1029.1875 370.414062 L 1067.613281 379.214844 L 1058.816406 417.640625 L 1020.386719 408.839844 Z M 1029.1875 370.414062 " fill-opacity="1" fill-rule="nonzero"/></g></g></g></g><g clip-path="url(#e8f7d4aea6)"><g clip-path="url(#7698e00541)"><g clip-path="url(#d8ca4a0427)"><g clip-path="url(#0823825bab)"><path fill="#f11c0d" d="M 849.078125 450.492188 L 866.679688 373.640625 L 828.25 364.839844 L 837.050781 326.414062 L 798.625 317.613281 L 807.425781 279.1875 L 730.570312 261.585938 L 739.371094 223.160156 L 662.515625 205.5625 L 653.714844 243.988281 L 576.863281 226.386719 L 568.0625 264.8125 L 529.636719 256.011719 L 520.835938 294.441406 L 482.40625 285.640625 L 464.808594 362.492188 L 426.382812 353.691406 L 408.78125 430.542969 L 447.207031 439.34375 L 429.609375 516.199219 L 468.035156 524.996094 L 459.234375 563.425781 L 497.664062 572.222656 L 488.863281 610.648438 L 565.71875 628.25 L 556.917969 666.675781 L 633.773438 684.277344 L 642.570312 645.851562 L 719.425781 663.449219 L 728.226562 625.023438 L 766.652344 633.824219 L 775.453125 595.398438 L 813.878906 604.199219 L 831.480469 527.347656 L 869.90625 536.144531 L 887.507812 459.292969 Z M 849.078125 450.492188 " fill-opacity="1" fill-rule="nonzero"/></g></g></g></g><g clip-path="url(#e4171d506a)"><g clip-path="url(#31c5289baa)"><g clip-path="url(#5a1c966673)"><g clip-path="url(#33b82dfee8)"><path fill="#2e1b5b" d="M 426.382812 353.691406 L 464.808594 362.492188 L 447.207031 439.34375 L 408.78125 430.542969 Z M 426.382812 353.691406 " fill-opacity="1" fill-rule="nonzero"/></g></g></g></g><g clip-path="url(#3ba0db5fbc)"><g clip-path="url(#d3eccc3b35)"><g clip-path="url(#a7e228e9f5)"><g clip-path="url(#9a54655482)"><path fill="#2e1b5b" d="M 482.40625 285.640625 L 520.835938 294.441406 L 503.234375 371.292969 L 464.808594 362.492188 Z M 482.40625 285.640625 " fill-opacity="1" fill-rule="nonzero"/></g></g></g></g><g clip-path="url(#1480597f78)"><g clip-path="url(#8a5ebbfec2)"><g clip-path="url(#220ff3c399)"><g clip-path="url(#0570baa98a)"><path fill="#2e1b5b" d="M 447.207031 439.34375 L 485.636719 448.144531 L 468.035156 524.996094 L 429.609375 516.199219 Z M 447.207031 439.34375 " fill-opacity="1" fill-rule="nonzero"/></g></g></g></g><g clip-path="url(#da001368b4)"><g clip-path="url(#75bcb81be0)"><g clip-path="url(#6109a32f1b)"><g clip-path="url(#516cc5371f)"><path fill="#2e1b5b" d="M 529.636719 256.011719 L 568.0625 264.8125 L 559.261719 303.238281 L 520.835938 294.441406 Z M 529.636719 256.011719 " fill-opacity="1" fill-rule="nonzero"/></g></g></g></g><g clip-path="url(#0a0c92ebdc)"><g clip-path="url(#5f94ee09fe)"><g clip-path="url(#e8b4a153ca)"><g clip-path="url(#75f617ae7e)"><path fill="#2e1b5b" d="M 468.035156 524.996094 L 506.460938 533.796875 L 497.664062 572.222656 L 459.234375 563.425781 Z M 468.035156 524.996094 " fill-opacity="1" fill-rule="nonzero"/></g></g></g></g><g clip-path="url(#0b88868676)"><g clip-path="url(#1cc8e61ef1)"><g clip-path="url(#56a04023bd)"><g clip-path="url(#c70220501c)"><path fill="#2e1b5b" d="M 497.664062 572.222656 L 574.515625 589.824219 L 565.71875 628.25 L 488.863281 610.648438 Z M 497.664062 572.222656 " fill-opacity="1" fill-rule="nonzero"/></g></g></g></g><g clip-path="url(#6236862da4)"><g clip-path="url(#80e4842940)"><g clip-path="url(#6ebdd79954)"><g clip-path="url(#0bfaae15e2)"><path fill="#2e1b5b" d="M 565.71875 628.25 L 642.570312 645.851562 L 633.773438 684.277344 L 556.917969 666.675781 Z M 565.71875 628.25 " fill-opacity="1" fill-rule="nonzero"/></g></g></g></g><g clip-path="url(#219743b92b)"><g clip-path="url(#4800a7767d)"><g clip-path="url(#8c18645cd0)"><g clip-path="url(#7384f610f1)"><path fill="#2e1b5b" d="M 651.371094 607.425781 L 728.226562 625.023438 L 719.425781 663.449219 L 642.570312 645.851562 Z M 651.371094 607.425781 " fill-opacity="1" fill-rule="nonzero"/></g></g></g></g><g clip-path="url(#3a3e27e062)"><g clip-path="url(#9f0e1ec5a0)"><g clip-path="url(#09cb2e7dd8)"><g clip-path="url(#ed01a35987)"><path fill="#2e1b5b" d="M 737.027344 586.597656 L 775.453125 595.398438 L 766.652344 633.824219 L 728.226562 625.023438 Z M 737.027344 586.597656 " fill-opacity="1" fill-rule="nonzero"/></g></g></g></g><g clip-path="url(#2a96f49662)"><g clip-path="url(#35eb8d94c6)"><g clip-path="url(#b8857eaf1b)"><g clip-path="url(#345365eb23)"><path fill="#2e1b5b" d="M 464.808594 362.492188 L 503.234375 371.292969 L 485.636719 448.144531 L 447.207031 439.34375 Z M 464.808594 362.492188 " fill-opacity="0.5" fill-rule="nonzero"/></g></g></g></g><g clip-path="url(#2f18bd7909)"><g clip-path="url(#fa619a684f)"><g clip-path="url(#1a5d491832)"><g clip-path="url(#bd5678c353)"><path fill="#2e1b5b" d="M 485.636719 448.144531 L 524.0625 456.945312 L 506.460938 533.796875 L 468.035156 524.996094 Z M 485.636719 448.144531 " fill-opacity="0.5" fill-rule="nonzero"/></g></g></g></g><g clip-path="url(#5e9b30dd86)"><g clip-path="url(#e074b4963e)"><g clip-path="url(#779868e3c8)"><g clip-path="url(#bcea45a7d7)"><path fill="#2e1b5b" d="M 583.316406 551.398438 L 574.515625 589.824219 L 497.664062 572.222656 L 506.460938 533.796875 Z M 583.316406 551.398438 " fill-opacity="0.5" fill-rule="nonzero"/></g></g></g></g><g clip-path="url(#3c59617644)"><g clip-path="url(#0e91c51184)"><g clip-path="url(#af9e956ce5)"><g clip-path="url(#ffad6645b4)"><path fill="#2e1b5b" d="M 651.371094 607.425781 L 642.570312 645.851562 L 565.71875 628.25 L 574.515625 589.824219 Z M 651.371094 607.425781 " fill-opacity="0.5" fill-rule="nonzero"/></g></g></g></g><g clip-path="url(#a5d0634dcd)"><g clip-path="url(#ec0f4d28af)"><g clip-path="url(#f196522e58)"><g clip-path="url(#d812291fe9)"><path fill="#2e1b5b" d="M 737.027344 586.597656 L 728.226562 625.023438 L 651.371094 607.425781 L 660.171875 568.996094 Z M 737.027344 586.597656 " fill-opacity="0.5" fill-rule="nonzero"/></g></g></g></g><g clip-path="url(#7cdbf4a06e)"><g clip-path="url(#865965eae0)"><g clip-path="url(#57b5eb90bc)"><g clip-path="url(#94046e5b14)"><path fill="#2e1b5b" d="M 822.679688 565.773438 L 813.878906 604.199219 L 737.027344 586.597656 L 745.824219 548.171875 Z M 822.679688 565.773438 " fill-opacity="0.5" fill-rule="nonzero"/></g></g></g></g><g clip-path="url(#5be65ca04a)"><g clip-path="url(#6e6e915562)"><g clip-path="url(#3cfa1e026e)"><g clip-path="url(#7a5284f782)"><path fill="#2e1b5b" d="M 520.835938 294.441406 L 559.261719 303.238281 L 541.664062 380.09375 L 503.234375 371.292969 Z M 520.835938 294.441406 " fill-opacity="0.5" fill-rule="nonzero"/></g></g></g></g><g clip-path="url(#349376d758)"><g clip-path="url(#faa487b093)"><g clip-path="url(#8325f9cec3)"><g clip-path="url(#57bddfb913)"><path fill="#2e1b5b" d="M 576.863281 226.386719 L 615.289062 235.1875 L 597.6875 312.039062 L 559.261719 303.238281 Z M 576.863281 226.386719 " fill-opacity="0.5" fill-rule="nonzero"/></g></g></g></g><g clip-path="url(#eca48f7e6c)"><g clip-path="url(#7468478889)"><g clip-path="url(#ae832401d4)"><g clip-path="url(#333c597303)"><path fill="#2e1b5b" d="M 541.664062 380.09375 L 580.089844 388.894531 L 571.289062 427.320312 L 532.863281 418.519531 Z M 541.664062 380.09375 " fill-opacity="0.5" fill-rule="nonzero"/></g></g></g></g><g clip-path="url(#3b8a12e4af)"><g clip-path="url(#2c280cdd05)"><g clip-path="url(#a5301cc79d)"><g clip-path="url(#e56444f14c)"><path fill="#2e1b5b" d="M 562.488281 465.746094 L 600.917969 474.546875 L 592.117188 512.972656 L 553.691406 504.171875 Z M 562.488281 465.746094 " fill-opacity="0.5" fill-rule="nonzero"/></g></g></g></g><g clip-path="url(#b44f5c1909)"><g clip-path="url(#73b047ddb9)"><g clip-path="url(#5171b3ae89)"><g clip-path="url(#547c3347da)"><path fill="#2e1b5b" d="M 515.261719 495.371094 L 553.691406 504.171875 L 544.890625 542.597656 L 506.460938 533.796875 Z M 515.261719 495.371094 " fill-opacity="0.5" fill-rule="nonzero"/></g></g></g></g><g clip-path="url(#528aa06d25)"><g clip-path="url(#24f8bf4ae6)"><g clip-path="url(#f0b93b97b4)"><g clip-path="url(#4880617d59)"><path fill="#2e1b5b" d="M 630.542969 521.773438 L 668.972656 530.570312 L 660.171875 568.996094 L 621.742188 560.199219 Z M 630.542969 521.773438 " fill-opacity="0.5" fill-rule="nonzero"/></g></g></g></g><g clip-path="url(#f484786588)"><g clip-path="url(#03810ccca0)"><g clip-path="url(#b59f6e01ab)"><g clip-path="url(#f113418ed2)"><path fill="#2e1b5b" d="M 716.199219 500.945312 L 754.625 509.746094 L 745.824219 548.171875 L 707.398438 539.371094 Z M 716.199219 500.945312 " fill-opacity="0.5" fill-rule="nonzero"/></g></g></g></g><g clip-path="url(#0aa6787f23)"><g clip-path="url(#a22b385129)"><g clip-path="url(#e3fb3c6df2)"><g clip-path="url(#e8dec67105)"><path fill="#2e1b5b" d="M 793.050781 518.546875 L 831.480469 527.347656 L 822.679688 565.773438 L 784.253906 556.972656 Z M 793.050781 518.546875 " fill-opacity="0.5" fill-rule="nonzero"/></g></g></g></g><g clip-path="url(#7cf898e0c6)"><g clip-path="url(#a9c656a219)"><g clip-path="url(#1c687414b9)"><g clip-path="url(#b3b3b9021b)"><path fill="#2e1b5b" d="M 840.28125 488.917969 L 878.707031 497.71875 L 869.90625 536.144531 L 831.480469 527.347656 Z M 840.28125 488.917969 " fill-opacity="0.5" fill-rule="nonzero"/></g></g></g></g><g clip-path="url(#04dc8b849c)"><g clip-path="url(#7ff3b7ba5c)"><g clip-path="url(#67fdf1671d)"><g clip-path="url(#9dad81503d)"><path fill="#2e1b5b" d="M 810.652344 441.691406 L 849.078125 450.492188 L 840.28125 488.917969 L 801.851562 480.121094 Z M 810.652344 441.691406 " fill-opacity="0.5" fill-rule="nonzero"/></g></g></g></g><g clip-path="url(#e9761c11fd)"><g clip-path="url(#1402c724e4)"><g clip-path="url(#3bb11edfa7)"><g clip-path="url(#6e313f6ff3)"><path fill="#ffb8b8" d="M 721.769531 300.015625 L 760.199219 308.8125 L 733.796875 424.09375 L 695.371094 415.292969 Z M 721.769531 300.015625 " fill-opacity="0.5" fill-rule="nonzero"/></g></g></g></g><g clip-path="url(#a0db9dd931)"><g clip-path="url(#53ec6e3211)"><g clip-path="url(#aeee12bcc9)"><g clip-path="url(#0d07937a73)"><path fill="#ffb8b8" d="M 674.542969 329.640625 L 789.824219 356.039062 L 781.023438 394.464844 L 665.742188 368.066406 Z M 674.542969 329.640625 " fill-opacity="0.5" fill-rule="nonzero"/></g></g></g></g><g clip-path="url(#ca4b787a7a)"><g clip-path="url(#717010b6bc)"><g clip-path="url(#3a855f7dd7)"><g clip-path="url(#8f70cda975)"><path fill="#ffb8b8" d="M 712.96875 338.441406 L 751.398438 347.242188 L 742.597656 385.667969 L 704.171875 376.867188 Z M 712.96875 338.441406 " fill-opacity="1" fill-rule="nonzero"/></g></g></g></g><g clip-path="url(#5ff4df768d)"><g clip-path="url(#88e60bebc3)"><g clip-path="url(#b1daf336d9)"><g clip-path="url(#42b462685c)"><path fill="#2e1b5b" d="M 709.742188 175.933594 L 748.171875 184.734375 L 739.371094 223.160156 L 700.941406 214.359375 Z M 709.742188 175.933594 " fill-opacity="1" fill-rule="nonzero"/></g></g></g></g><g clip-path="url(#51b881ac8e)"><g clip-path="url(#1725f13db6)"><g clip-path="url(#1753aa9b7f)"><g clip-path="url(#9095e28cbe)"><path fill="#2e1b5b" d="M 756.96875 146.308594 L 833.824219 163.910156 L 825.023438 202.335938 L 748.171875 184.734375 Z M 756.96875 146.308594 " fill-opacity="1" fill-rule="nonzero"/></g></g></g></g><g clip-path="url(#5572c54822)"><g clip-path="url(#e362b8982f)"><g clip-path="url(#1885f28da4)"><g clip-path="url(#f04d9d824c)"><path fill="#2e1b5b" d="M 842.625 125.484375 L 919.476562 143.082031 L 910.679688 181.507812 L 833.824219 163.910156 Z M 842.625 125.484375 " fill-opacity="1" fill-rule="nonzero"/></g></g></g></g><g clip-path="url(#f126c1bec3)"><g clip-path="url(#6423644099)"><g clip-path="url(#6599767362)"><g clip-path="url(#33734d4969)"><path fill="#2e1b5b" d="M 910.679688 181.507812 L 949.105469 190.308594 L 940.304688 228.734375 L 901.878906 219.933594 Z M 910.679688 181.507812 " fill-opacity="1" fill-rule="nonzero"/></g></g></g></g><g clip-path="url(#f11ab360a8)"><g clip-path="url(#f8e5f31511)"><g clip-path="url(#eab867472d)"><g clip-path="url(#bad4e62975)"><path fill="#f11c0d" d="M 940.304688 228.734375 L 1017.160156 246.335938 L 999.558594 323.1875 L 922.707031 305.589844 Z M 940.304688 228.734375 " fill-opacity="1" fill-rule="nonzero"/></g></g></g></g><g clip-path="url(#3a6b171e14)"><g clip-path="url(#21fb27395a)"><g clip-path="url(#b3ea7aec25)"><g clip-path="url(#d2dc52b639)"><path fill="#f11c0d" d="M 969.933594 275.960938 L 1046.789062 293.5625 L 1029.1875 370.414062 L 952.332031 352.8125 Z M 969.933594 275.960938 " fill-opacity="1" fill-rule="nonzero"/></g></g></g></g><g clip-path="url(#eb693b3d07)"><g clip-path="url(#94f286e7f8)"><g clip-path="url(#aa4960f7bd)"><g clip-path="url(#fb76c83a28)"><path fill="#f11c0d" d="M 913.90625 344.015625 L 952.332031 352.8125 L 943.535156 391.242188 L 905.105469 382.441406 Z M 913.90625 344.015625 " fill-opacity="1" fill-rule="nonzero"/></g></g></g></g><g clip-path="url(#9b99e18b6b)"><g clip-path="url(#f52eddb168)"><g clip-path="url(#91de096215)"><g clip-path="url(#95d199780a)"><path fill="#f11c0d" d="M 1029.1875 370.414062 L 1067.613281 379.214844 L 1058.816406 417.640625 L 1020.386719 408.839844 Z M 1029.1875 370.414062 " fill-opacity="1" fill-rule="nonzero"/></g></g></g></g><g clip-path="url(#fcfd97abb9)"><g clip-path="url(#b7f65c6a6c)"><g clip-path="url(#639d069fea)"><g clip-path="url(#c62cc0f1d7)"><path fill="#ffe200" d="M 940.304688 228.734375 L 978.734375 237.535156 L 969.933594 275.960938 L 931.503906 267.160156 Z M 940.304688 228.734375 " fill-opacity="1" fill-rule="nonzero"/></g></g></g></g><g clip-path="url(#6cdd0d0f08)"><g clip-path="url(#e53340a9e5)"><g clip-path="url(#c07504e742)"><g clip-path="url(#209ecd573e)"><path fill="#ffe200" d="M 969.933594 275.960938 L 1008.359375 284.761719 L 999.558594 323.1875 L 961.132812 314.386719 Z M 969.933594 275.960938 " fill-opacity="1" fill-rule="nonzero"/></g></g></g></g><g clip-path="url(#9d5ed4f306)"><g clip-path="url(#a3038acb46)"><g clip-path="url(#c9de636723)"><g clip-path="url(#85b263b065)"><path fill="#727678" d="M 662.515625 205.5625 L 739.371094 223.160156 L 730.570312 261.585938 L 653.714844 243.988281 Z M 662.515625 205.5625 " fill-opacity="1" fill-rule="nonzero"/></g></g></g></g><g clip-path="url(#f2c68d5487)"><g clip-path="url(#1b35541c20)"><g clip-path="url(#900ba5e939)"><g clip-path="url(#efb01ae267)"><path fill="#ffb8b8" d="M 662.515625 205.5625 L 700.941406 214.359375 L 692.144531 252.789062 L 653.714844 243.988281 Z M 662.515625 205.5625 " fill-opacity="0.5" fill-rule="nonzero"/></g></g></g></g></svg>