<svg xmlns="http://www.w3.org/2000/svg" xmlns:xlink="http://www.w3.org/1999/xlink" width="1920" zoomAndPan="magnify" viewBox="0 0 1440 809.999993" height="1080" preserveAspectRatio="xMidYMid meet" version="1.0"><defs><clipPath id="04ca2bf3b5"><path d="M 415 151 L 1016 151 L 1016 657 L 415 657 Z M 415 151 " clip-rule="nonzero"/></clipPath><clipPath id="0a54631162"><path d="M 393.382812 176.59375 L 1021.03125 143.824219 L 1046.605469 633.65625 L 418.960938 666.429688 Z M 393.382812 176.59375 " clip-rule="nonzero"/></clipPath><clipPath id="0a23574433"><path d="M 393.382812 176.59375 L 1021.03125 143.824219 L 1046.605469 633.65625 L 418.960938 666.429688 Z M 393.382812 176.59375 " clip-rule="nonzero"/></clipPath><clipPath id="04ae76ff7a"><path d="M 712 591 L 820 591 L 820 632 L 712 632 Z M 712 591 " clip-rule="nonzero"/></clipPath><clipPath id="02ee79d984"><path d="M 393.382812 176.59375 L 1021.03125 143.824219 L 1046.605469 633.65625 L 418.960938 666.429688 Z M 393.382812 176.59375 " clip-rule="nonzero"/></clipPath><clipPath id="27f84257b0"><path d="M 393.382812 176.59375 L 1021.03125 143.824219 L 1046.605469 633.65625 L 418.960938 666.429688 Z M 393.382812 176.59375 " clip-rule="nonzero"/></clipPath><clipPath id="aa18d8cc11"><path d="M 419 315 L 458 315 L 458 368 L 419 368 Z M 419 315 " clip-rule="nonzero"/></clipPath><clipPath id="a004e198c4"><path d="M 393.382812 176.59375 L 1021.03125 143.824219 L 1046.605469 633.65625 L 418.960938 666.429688 Z M 393.382812 176.59375 " clip-rule="nonzero"/></clipPath><clipPath id="63f40b38eb"><path d="M 393.382812 176.59375 L 1021.03125 143.824219 L 1046.605469 633.65625 L 418.960938 666.429688 Z M 393.382812 176.59375 " clip-rule="nonzero"/></clipPath><clipPath id="f07e7d2bec"><path d="M 727 525 L 748 525 L 748 578 L 727 578 Z M 727 525 " clip-rule="nonzero"/></clipPath><clipPath id="5c73ed51c3"><path d="M 393.382812 176.59375 L 1021.03125 143.824219 L 1046.605469 633.65625 L 418.960938 666.429688 Z M 393.382812 176.59375 " clip-rule="nonzero"/></clipPath><clipPath id="aefc3c2f26"><path d="M 393.382812 176.59375 L 1021.03125 143.824219 L 1046.605469 633.65625 L 418.960938 666.429688 Z M 393.382812 176.59375 " clip-rule="nonzero"/></clipPath><clipPath id="24d96b8d03"><path d="M 416 262 L 437 262 L 437 300 L 416 300 Z M 416 262 " clip-rule="nonzero"/></clipPath><clipPath id="a0d53a3f4e"><path d="M 393.382812 176.59375 L 1021.03125 143.824219 L 1046.605469 633.65625 L 418.960938 666.429688 Z M 393.382812 176.59375 " clip-rule="nonzero"/></clipPath><clipPath id="e4e496582f"><path d="M 393.382812 176.59375 L 1021.03125 143.824219 L 1046.605469 633.65625 L 418.960938 666.429688 Z M 393.382812 176.59375 " clip-rule="nonzero"/></clipPath><clipPath id="4de25dc92c"><path d="M 836 606 L 854 606 L 854 626 L 836 626 Z M 836 606 " clip-rule="nonzero"/></clipPath><clipPath id="f8e8960f57"><path d="M 393.382812 176.59375 L 1021.03125 143.824219 L 1046.605469 633.65625 L 418.960938 666.429688 Z M 393.382812 176.59375 " clip-rule="nonzero"/></clipPath><clipPath id="1ccf7cc99b"><path d="M 393.382812 176.59375 L 1021.03125 143.824219 L 1046.605469 633.65625 L 418.960938 666.429688 Z M 393.382812 176.59375 " clip-rule="nonzero"/></clipPath><clipPath id="e91d240661"><path d="M 990 232 L 1009 232 L 1009 270 L 990 270 Z M 990 232 " clip-rule="nonzero"/></clipPath><clipPath id="fe8992b533"><path d="M 393.382812 176.59375 L 1021.03125 143.824219 L 1046.605469 633.65625 L 418.960938 666.429688 Z M 393.382812 176.59375 " clip-rule="nonzero"/></clipPath><clipPath id="4af548bc94"><path d="M 393.382812 176.59375 L 1021.03125 143.824219 L 1046.605469 633.65625 L 418.960938 666.429688 Z M 393.382812 176.59375 " clip-rule="nonzero"/></clipPath><clipPath id="4b4ec85975"><path d="M 977 285 L 1012 285 L 1012 340 L 977 340 Z M 977 285 " clip-rule="nonzero"/></clipPath><clipPath id="32daba1541"><path d="M 393.382812 176.59375 L 1021.03125 143.824219 L 1046.605469 633.65625 L 418.960938 666.429688 Z M 393.382812 176.59375 " clip-rule="nonzero"/></clipPath><clipPath id="36952d07dc"><path d="M 393.382812 176.59375 L 1021.03125 143.824219 L 1046.605469 633.65625 L 418.960938 666.429688 Z M 393.382812 176.59375 " clip-rule="nonzero"/></clipPath><clipPath id="7b17b227c3"><path d="M 605 187 L 895 187 L 895 492 L 605 492 Z M 605 187 " clip-rule="nonzero"/></clipPath><clipPath id="680006788b"><path d="M 393.382812 176.59375 L 1021.03125 143.824219 L 1046.605469 633.65625 L 418.960938 666.429688 Z M 393.382812 176.59375 " clip-rule="nonzero"/></clipPath><clipPath id="fb497f45de"><path d="M 393.382812 176.59375 L 1021.03125 143.824219 L 1046.605469 633.65625 L 418.960938 666.429688 Z M 393.382812 176.59375 " clip-rule="nonzero"/></clipPath><clipPath id="b032fdfce9"><path d="M 432 227 L 452 227 L 452 245 L 432 245 Z M 432 227 " clip-rule="nonzero"/></clipPath><clipPath id="b69dca7201"><path d="M 393.382812 176.59375 L 1021.03125 143.824219 L 1046.605469 633.65625 L 418.960938 666.429688 Z M 393.382812 176.59375 " clip-rule="nonzero"/></clipPath><clipPath id="39cc56b123"><path d="M 393.382812 176.59375 L 1021.03125 143.824219 L 1046.605469 633.65625 L 418.960938 666.429688 Z M 393.382812 176.59375 " clip-rule="nonzero"/></clipPath><clipPath id="b697ff5a18"><path d="M 818 607 L 838 607 L 838 627 L 818 627 Z M 818 607 " clip-rule="nonzero"/></clipPath><clipPath id="913306bf53"><path d="M 393.382812 176.59375 L 1021.03125 143.824219 L 1046.605469 633.65625 L 418.960938 666.429688 Z M 393.382812 176.59375 " clip-rule="nonzero"/></clipPath><clipPath id="52301b6fd3"><path d="M 393.382812 176.59375 L 1021.03125 143.824219 L 1046.605469 633.65625 L 418.960938 666.429688 Z M 393.382812 176.59375 " clip-rule="nonzero"/></clipPath><clipPath id="26548977ee"><path d="M 744 524 L 764 524 L 764 577 L 744 577 Z M 744 524 " clip-rule="nonzero"/></clipPath><clipPath id="3b9cab9ab2"><path d="M 393.382812 176.59375 L 1021.03125 143.824219 L 1046.605469 633.65625 L 418.960938 666.429688 Z M 393.382812 176.59375 " clip-rule="nonzero"/></clipPath><clipPath id="8a31fc9a2d"><path d="M 393.382812 176.59375 L 1021.03125 143.824219 L 1046.605469 633.65625 L 418.960938 666.429688 Z M 393.382812 176.59375 " clip-rule="nonzero"/></clipPath><clipPath id="012fc94128"><path d="M 415 244 L 435 244 L 435 264 L 415 264 Z M 415 244 " clip-rule="nonzero"/></clipPath><clipPath id="16e59d3851"><path d="M 393.382812 176.59375 L 1021.03125 143.824219 L 1046.605469 633.65625 L 418.960938 666.429688 Z M 393.382812 176.59375 " clip-rule="nonzero"/></clipPath><clipPath id="9bd25b5b48"><path d="M 393.382812 176.59375 L 1021.03125 143.824219 L 1046.605469 633.65625 L 418.960938 666.429688 Z M 393.382812 176.59375 " clip-rule="nonzero"/></clipPath><clipPath id="cf3f6f56b0"><path d="M 418 298 L 438 298 L 438 317 L 418 317 Z M 418 298 " clip-rule="nonzero"/></clipPath><clipPath id="413e40cd0c"><path d="M 393.382812 176.59375 L 1021.03125 143.824219 L 1046.605469 633.65625 L 418.960938 666.429688 Z M 393.382812 176.59375 " clip-rule="nonzero"/></clipPath><clipPath id="e98dc62dde"><path d="M 393.382812 176.59375 L 1021.03125 143.824219 L 1046.605469 633.65625 L 418.960938 666.429688 Z M 393.382812 176.59375 " clip-rule="nonzero"/></clipPath><clipPath id="6ba406e293"><path d="M 837 326 L 876 326 L 876 365 L 837 365 Z M 837 326 " clip-rule="nonzero"/></clipPath><clipPath id="4e13a76b19"><path d="M 393.382812 176.59375 L 1021.03125 143.824219 L 1046.605469 633.65625 L 418.960938 666.429688 Z M 393.382812 176.59375 " clip-rule="nonzero"/></clipPath><clipPath id="ca4ecaa512"><path d="M 393.382812 176.59375 L 1021.03125 143.824219 L 1046.605469 633.65625 L 418.960938 666.429688 Z M 393.382812 176.59375 " clip-rule="nonzero"/></clipPath><clipPath id="c79357f80a"><path d="M 990 214 L 1007 214 L 1007 234 L 990 234 Z M 990 214 " clip-rule="nonzero"/></clipPath><clipPath id="f676f40e8b"><path d="M 393.382812 176.59375 L 1021.03125 143.824219 L 1046.605469 633.65625 L 418.960938 666.429688 Z M 393.382812 176.59375 " clip-rule="nonzero"/></clipPath><clipPath id="dfe26a970d"><path d="M 393.382812 176.59375 L 1021.03125 143.824219 L 1046.605469 633.65625 L 418.960938 666.429688 Z M 393.382812 176.59375 " clip-rule="nonzero"/></clipPath><clipPath id="9f24c4f40e"><path d="M 971 199 L 991 199 L 991 217 L 971 217 Z M 971 199 " clip-rule="nonzero"/></clipPath><clipPath id="ec84795f83"><path d="M 393.382812 176.59375 L 1021.03125 143.824219 L 1046.605469 633.65625 L 418.960938 666.429688 Z M 393.382812 176.59375 " clip-rule="nonzero"/></clipPath><clipPath id="fd402991d3"><path d="M 393.382812 176.59375 L 1021.03125 143.824219 L 1046.605469 633.65625 L 418.960938 666.429688 Z M 393.382812 176.59375 " clip-rule="nonzero"/></clipPath><clipPath id="e231fea300"><path d="M 992 268 L 1010 268 L 1010 287 L 992 287 Z M 992 268 " clip-rule="nonzero"/></clipPath><clipPath id="908355e5eb"><path d="M 393.382812 176.59375 L 1021.03125 143.824219 L 1046.605469 633.65625 L 418.960938 666.429688 Z M 393.382812 176.59375 " clip-rule="nonzero"/></clipPath><clipPath id="726d11e806"><path d="M 393.382812 176.59375 L 1021.03125 143.824219 L 1046.605469 633.65625 L 418.960938 666.429688 Z M 393.382812 176.59375 " clip-rule="nonzero"/></clipPath><clipPath id="0e213671c8"><path d="M 831 206 L 872 206 L 872 295 L 831 295 Z M 831 206 " clip-rule="nonzero"/></clipPath><clipPath id="1eff3b9313"><path d="M 393.382812 176.59375 L 1021.03125 143.824219 L 1046.605469 633.65625 L 418.960938 666.429688 Z M 393.382812 176.59375 " clip-rule="nonzero"/></clipPath><clipPath id="2986446f3f"><path d="M 393.382812 176.59375 L 1021.03125 143.824219 L 1046.605469 633.65625 L 418.960938 666.429688 Z M 393.382812 176.59375 " clip-rule="nonzero"/></clipPath><clipPath id="6dbe720af3"><path d="M 799 590 L 819 590 L 819 610 L 799 610 Z M 799 590 " clip-rule="nonzero"/></clipPath><clipPath id="56303064ec"><path d="M 393.382812 176.59375 L 1021.03125 143.824219 L 1046.605469 633.65625 L 418.960938 666.429688 Z M 393.382812 176.59375 " clip-rule="nonzero"/></clipPath><clipPath id="5f886e7f94"><path d="M 393.382812 176.59375 L 1021.03125 143.824219 L 1046.605469 633.65625 L 418.960938 666.429688 Z M 393.382812 176.59375 " clip-rule="nonzero"/></clipPath><clipPath id="43b9523564"><path d="M 396 149 L 1031 149 L 1031 658 L 396 658 Z M 396 149 " clip-rule="nonzero"/></clipPath><clipPath id="e31302443f"><path d="M 393.382812 176.59375 L 1021.03125 143.824219 L 1046.605469 633.65625 L 418.960938 666.429688 Z M 393.382812 176.59375 " clip-rule="nonzero"/></clipPath><clipPath id="c11ce69dd8"><path d="M 393.382812 176.59375 L 1021.03125 143.824219 L 1046.605469 633.65625 L 418.960938 666.429688 Z M 393.382812 176.59375 " clip-rule="nonzero"/></clipPath></defs><g clip-path="url(#04ca2bf3b5)"><g clip-path="url(#0a54631162)"><g clip-path="url(#0a23574433)"><path fill="#ffb200" d="M 1006.660156 216.070312 L 1005.878906 216.113281 L 1005.664062 212.003906 C 1005.492188 210.914062 1005.433594 209.820312 1005.492188 208.71875 L 1005.050781 200.203125 L 989.097656 201.035156 L 988.175781 183.355469 L 917.289062 187.058594 L 915.441406 151.703125 L 499.023438 173.445312 L 500.867188 208.800781 L 431.75 212.410156 L 432.671875 230.085938 L 425.265625 230.472656 C 427.25 234.410156 428.691406 238.535156 429.589844 242.851562 L 425.347656 243.15625 C 423.742188 243.132812 422.160156 243.316406 420.601562 243.707031 C 417.539062 244.785156 417.523438 248.398438 417.019531 251.101562 L 416.121094 256.035156 C 415.714844 257.652344 415.441406 259.292969 415.292969 260.953125 C 415.226562 264.664062 419.257812 264.5625 422 264.722656 C 424.375 264.898438 426.75 264.925781 429.128906 264.800781 C 428.15625 269.589844 427.242188 274.375 426.542969 279.1875 C 426.542969 280.726562 426.59375 282.261719 426.675781 283.78125 C 427.890625 287.644531 429.367188 291.425781 430.640625 295.285156 C 430.835938 295.894531 431.003906 296.515625 431.203125 297.125 C 428.457031 297.117188 425.675781 296.453125 422.941406 296.691406 C 421.066406 296.789062 418.632812 297.246094 417.570312 298.988281 C 416.507812 300.734375 417.160156 303.5 417.421875 305.382812 C 417.570312 307.15625 417.992188 308.863281 418.6875 310.503906 C 419.382812 312.140625 420.320312 313.632812 421.492188 314.972656 L 420.601562 315.019531 C 420.328125 314.996094 420.058594 315.027344 419.796875 315.113281 C 419.535156 315.195312 419.300781 315.328125 419.089844 315.507812 C 418.882812 315.683594 418.714844 315.894531 418.589844 316.140625 C 418.464844 316.386719 418.390625 316.644531 418.367188 316.921875 C 418.347656 317.195312 418.378906 317.460938 418.460938 317.722656 C 418.546875 317.984375 418.675781 318.222656 418.855469 318.429688 C 419.035156 318.640625 419.246094 318.808594 419.492188 318.933594 C 419.734375 319.058594 419.996094 319.132812 420.269531 319.15625 C 423.074219 319.640625 425.84375 319.496094 428.582031 318.722656 C 429.554688 318.671875 430.523438 318.621094 431.496094 318.570312 L 432.621094 318.511719 C 432.679688 318.683594 432.757812 318.847656 432.851562 319.003906 C 432.945312 319.410156 433.0625 319.804688 433.203125 320.195312 C 433.144531 321.113281 433.191406 322.027344 433.34375 322.933594 C 432.941406 325.820312 432.84375 328.71875 433.058594 331.625 C 433.238281 333.46875 433.578125 335.28125 434.082031 337.066406 C 433.734375 338.75 433.6875 340.4375 433.949219 342.136719 C 434.234375 343.789062 434.953125 345.222656 436.109375 346.433594 C 436.214844 346.710938 436.382812 346.945312 436.613281 347.132812 C 436.84375 347.320312 437.105469 347.433594 437.402344 347.476562 L 437.585938 347.578125 C 437.269531 348.523438 437.296875 349.460938 437.664062 350.386719 C 437.402344 352.542969 437.105469 354.6875 436.695312 356.824219 C 438.816406 358.625 440.773438 360.589844 442.566406 362.722656 C 444.359375 364.851562 445.960938 367.117188 447.371094 369.519531 C 448.78125 371.917969 449.980469 374.421875 450.972656 377.023438 C 451.960938 379.625 452.726562 382.292969 453.269531 385.023438 L 458.539062 384.75 L 459.113281 395.703125 C 462.699219 397.179688 466.039062 399.089844 469.132812 401.425781 C 469.699219 401.535156 470.253906 401.644531 470.8125 401.792969 L 475.414062 401.550781 L 475.5 403.234375 C 477.90625 404.15625 480.222656 405.265625 482.445312 406.566406 C 484.667969 407.867188 486.769531 409.339844 488.75 410.988281 C 490.726562 412.636719 492.558594 414.4375 494.238281 416.390625 C 495.921875 418.339844 497.429688 420.414062 498.769531 422.617188 L 502.390625 423.074219 C 503.695312 423.261719 504.980469 423.53125 506.25 423.886719 C 511.304688 425.003906 516.039062 426.914062 520.457031 429.613281 C 522.410156 428.617188 524.480469 428.050781 526.671875 427.914062 C 532.75 427.554688 538.820312 427.664062 544.878906 428.242188 C 549.019531 428.65625 552.652344 431.953125 554.964844 435.183594 C 556.152344 437.015625 556.945312 439.007812 557.339844 441.15625 C 557.734375 443.304688 557.703125 445.449219 557.246094 447.585938 C 556.621094 450.507812 555.273438 453.039062 553.191406 455.183594 C 554.496094 456.191406 555.660156 457.335938 556.679688 458.625 L 556.808594 458.703125 C 557.972656 459.269531 559.097656 459.902344 560.191406 460.597656 C 562.335938 461.804688 564.257812 463.296875 565.953125 465.082031 C 567.652344 466.863281 569.046875 468.859375 570.140625 471.0625 C 571.453125 473.742188 572.179688 476.566406 572.328125 479.542969 C 575.242188 480.335938 578.019531 481.46875 580.660156 482.941406 L 584.496094 482.738281 L 584.625 485.257812 C 588.882812 487.894531 592.921875 490.867188 596.777344 493.191406 C 599.273438 494.695312 601.78125 496.171875 604.378906 497.503906 L 604.644531 497.640625 L 608.808594 497.425781 C 609.910156 496.816406 611.066406 496.347656 612.277344 496.015625 C 613.492188 495.683594 614.726562 495.5 615.984375 495.464844 C 617.238281 495.429688 618.484375 495.542969 619.710938 495.804688 C 620.941406 496.066406 622.125 496.46875 623.257812 497.011719 C 624.449219 497.140625 625.601562 497.425781 626.71875 497.867188 C 627.832031 498.304688 628.867188 498.886719 629.828125 499.609375 C 630.785156 500.328125 631.628906 501.164062 632.359375 502.113281 C 633.089844 503.066406 633.683594 504.09375 634.132812 505.203125 C 639.988281 508.5 646.15625 511.03125 652.640625 512.792969 L 657.089844 512.558594 L 657.175781 514.191406 C 663.511719 515.9375 669.675781 518.15625 675.671875 520.84375 C 677.453125 521.621094 679.015625 522.710938 680.367188 524.105469 C 681.71875 525.503906 682.75 527.101562 683.46875 528.910156 L 691.683594 528.480469 L 694.359375 579.730469 L 625.253906 583.339844 L 626.175781 601.015625 L 626.191406 601.304688 L 626.175781 601.015625 L 608.457031 601.941406 L 609.378906 619.617188 L 609.398438 620 L 609.378906 619.617188 L 591.660156 620.542969 L 592.585938 638.21875 L 574.867188 639.144531 L 575.789062 656.851562 L 907.152344 639.550781 L 906.230469 621.871094 L 888.578125 622.792969 L 887.65625 605.117188 L 869.855469 606.046875 L 868.933594 588.367188 L 851.226562 589.292969 L 850.304688 571.617188 L 781.199219 575.222656 L 778.523438 523.972656 L 785.136719 523.628906 C 786.09375 523.023438 787.140625 522.722656 788.273438 522.722656 C 789.921875 522.777344 791.558594 522.9375 793.1875 523.207031 L 809.917969 522.332031 L 810.011719 522.234375 C 811.824219 519.886719 811.515625 514.738281 812.492188 511.886719 C 812.742188 511.1875 813.023438 510.488281 813.320312 509.910156 L 813.035156 504.433594 L 814.855469 504.335938 C 815.398438 503.722656 816.039062 503.246094 816.78125 502.90625 C 817.523438 502.5625 818.304688 502.382812 819.121094 502.371094 L 821.859375 502.226562 C 822.371094 502.203125 822.882812 502.234375 823.386719 502.324219 C 827.816406 502.539062 832.226562 502.339844 836.621094 501.730469 C 842.398438 500.660156 843.105469 497.355469 844.976562 492.464844 C 845.277344 491.691406 845.628906 490.941406 846.027344 490.214844 L 845.753906 484.996094 L 850.316406 484.761719 C 851.65625 483.5625 853.109375 482.515625 854.667969 481.621094 C 858.664062 479.296875 859.785156 477.566406 861.851562 473.285156 C 862.148438 472.664062 862.476562 472.054688 862.816406 471.476562 L 862.644531 468.160156 L 865.628906 468.007812 C 865.996094 467.6875 866.382812 467.398438 866.789062 467.136719 C 868.613281 465.996094 871.238281 466.09375 872.675781 464.671875 C 875.753906 461.601562 874.75 454.953125 877.875 451.191406 C 879.589844 449.203125 881.695312 447.800781 884.191406 446.992188 C 886.605469 446.136719 889.652344 446.363281 890.898438 443.976562 C 892.148438 441.59375 891.558594 437.941406 891.910156 435.453125 C 892.261719 433.140625 892.898438 430.90625 893.8125 428.75 C 893.980469 428.292969 894.207031 427.863281 894.484375 427.464844 C 893.773438 425.246094 893.496094 422.972656 893.652344 420.644531 C 893.8125 418.320312 894.394531 416.105469 895.402344 414.003906 L 895.363281 413.277344 L 895.816406 413.253906 C 896.457031 412.140625 897.230469 411.128906 898.132812 410.21875 C 899.039062 409.308594 900.046875 408.53125 901.15625 407.886719 C 902.265625 407.238281 903.441406 406.746094 904.679688 406.410156 C 905.917969 406.070312 907.179688 405.898438 908.460938 405.894531 C 913.199219 405.644531 917.949219 405.605469 922.6875 405.660156 C 922.800781 403.511719 923.332031 401.472656 924.28125 399.542969 C 925.230469 397.609375 926.519531 395.945312 928.148438 394.539062 L 928.113281 393.84375 L 929.042969 393.792969 C 931.734375 391.679688 934.769531 390.335938 938.140625 389.761719 C 944.117188 388.75 950.355469 389.125 956.28125 387.9375 C 957.289062 387.710938 958.277344 387.402344 959.238281 387.015625 C 959.945312 384.425781 961.171875 382.121094 962.925781 380.09375 L 962.71875 376.09375 L 967.347656 375.855469 C 968.085938 375.265625 968.824219 374.71875 969.582031 374.199219 C 972.074219 372.566406 974.675781 371.128906 977.386719 369.890625 C 977.113281 365.675781 977.816406 361.628906 979.5 357.753906 L 979.488281 357.496094 L 979.609375 357.488281 C 983.53125 348.46875 991.785156 341.144531 999.121094 334.40625 C 1001.597656 332.132812 1004.019531 329.824219 1006.265625 327.332031 C 1006.574219 326.945312 1006.921875 326.59375 1007.308594 326.273438 C 1007.484375 325.964844 1007.695312 325.582031 1008.011719 325.058594 C 1009.171875 323.226562 1010.160156 321.308594 1010.980469 319.300781 C 1013.261719 313.304688 1013.589844 307.234375 1013.53125 301.125 C 1013.359375 284.660156 1011.019531 268.539062 1013.714844 252.074219 C 1013.96875 250.59375 1014.457031 249.191406 1015.1875 247.878906 C 1011.183594 237.722656 1009.695312 226.609375 1006.660156 216.070312 Z M 419.335938 260.769531 C 419.339844 260.863281 419.34375 260.890625 419.335938 260.769531 Z M 421.382812 260.566406 C 420.765625 260.515625 420.089844 260.484375 419.453125 260.378906 C 419.480469 260.304688 419.503906 260.230469 419.523438 260.15625 C 419.613281 259.832031 419.671875 259.503906 419.707031 259.171875 L 420.601562 254.277344 L 421.382812 250.035156 C 421.417969 249.316406 421.550781 248.621094 421.78125 247.941406 C 422.058594 247.433594 422.296875 247.503906 422.910156 247.441406 C 425.355469 247.207031 427.804688 247.0625 430.253906 246.910156 C 430.847656 251.507812 430.742188 256.089844 429.941406 260.65625 C 427.09375 260.84375 424.242188 260.816406 421.398438 260.566406 Z M 421.316406 301.074219 C 421.644531 300.9375 421.980469 300.851562 422.332031 300.8125 C 423.941406 300.613281 425.546875 300.621094 427.152344 300.835938 C 428.902344 301.050781 430.660156 301.144531 432.425781 301.109375 C 433.542969 305.171875 434.496094 309.242188 435.328125 313.316406 L 435.21875 313.320312 C 433.800781 313.4375 432.402344 313.675781 431.027344 314.035156 C 429.023438 314.328125 427.148438 313.96875 425.398438 312.957031 C 422.453125 311.023438 421.660156 307.164062 421.339844 303.914062 C 421.191406 303.09375 421.128906 302.269531 421.144531 301.4375 C 421.152344 301.34375 421.144531 301.246094 421.128906 301.152344 C 421.203125 301.15625 421.265625 301.128906 421.316406 301.074219 Z M 511.851562 349.699219 C 511.453125 353.675781 510.378906 357.457031 508.625 361.042969 L 508.714844 362.785156 L 507.46875 362.847656 C 507.019531 363.53125 506.488281 364.148438 505.886719 364.703125 C 505.28125 365.253906 504.617188 365.726562 503.894531 366.113281 C 503.175781 366.503906 502.417969 366.796875 501.625 367 C 500.828125 367.199219 500.023438 367.300781 499.203125 367.304688 C 498.125 367.320312 497.105469 367.082031 496.144531 366.585938 C 487.015625 366.867188 484.292969 356.21875 488.738281 350.6875 C 484.222656 350.429688 479.777344 349.714844 475.84375 347.242188 C 475.660156 347.128906 475.503906 346.984375 475.332031 346.871094 L 472.347656 347.027344 L 472.207031 344.371094 C 471.003906 343.230469 469.890625 342.007812 468.871094 340.699219 C 466.355469 337.453125 465.320312 333.9375 461.0625 332.609375 C 454.65625 330.609375 449.789062 329.160156 447.140625 322.351562 C 444.984375 316.808594 444.816406 310.429688 444.910156 304.617188 C 444.992188 298.023438 445.65625 291.5625 446.058594 285.046875 C 446.359375 279.539062 446.253906 273.820312 448.542969 268.703125 C 449.382812 266.839844 450.535156 265.195312 452.003906 263.773438 L 451.875 261.28125 L 455.503906 261.089844 C 460.398438 258.363281 466.71875 257.882812 472.714844 257.542969 C 473.726562 257.453125 474.691406 257.617188 475.613281 258.042969 C 476.535156 258.46875 477.289062 259.09375 477.875 259.921875 L 485.597656 259.519531 L 485.671875 260.890625 C 486.40625 261.335938 486.996094 261.925781 487.4375 262.664062 L 487.847656 263.371094 C 488.183594 263.910156 488.433594 264.484375 488.601562 265.097656 C 488.769531 265.707031 488.847656 266.332031 488.835938 266.964844 C 488.820312 267.601562 488.71875 268.21875 488.523438 268.824219 C 488.332031 269.429688 488.054688 269.992188 487.699219 270.519531 C 487.566406 271.015625 487.367188 271.484375 487.097656 271.921875 C 491.359375 272.683594 495.332031 274.195312 499.019531 276.460938 L 504.25 276.1875 L 504.484375 280.707031 C 506.765625 283.28125 508.234375 286.257812 508.894531 289.636719 C 510.886719 298.359375 511.226562 308.007812 511.910156 316.9375 C 512.695312 327.742188 513.207031 338.835938 511.851562 349.699219 Z M 990.761719 233.144531 L 973.027344 234.070312 L 973.042969 234.386719 C 973.75 234.945312 974.308594 235.625 974.71875 236.429688 C 975.128906 237.234375 975.351562 238.085938 975.386719 238.984375 C 974.648438 251.175781 979.304688 262.738281 980.328125 274.753906 C 980.734375 278.363281 980.585938 281.949219 979.890625 285.515625 C 979.191406 289.078125 977.976562 292.453125 976.242188 295.644531 L 976.261719 296.015625 C 976.652344 296.832031 976.867188 297.691406 976.914062 298.597656 C 976.960938 299.5 976.835938 300.378906 976.535156 301.230469 L 976.625 302.929688 L 975.527344 302.988281 C 974.800781 303.867188 973.894531 304.492188 972.8125 304.859375 C 970.042969 305.820312 967.210938 306.503906 964.308594 306.910156 C 963.609375 307.011719 962.910156 306.988281 962.21875 306.839844 C 962.449219 308.75 962.320312 310.632812 961.828125 312.488281 C 962.089844 313.53125 962.082031 314.570312 961.8125 315.605469 C 961.417969 317.304688 960.734375 318.878906 959.765625 320.328125 L 959.828125 321.503906 L 958.8125 321.558594 C 957.175781 323.359375 955.234375 324.726562 952.988281 325.664062 C 949.257812 327.328125 947.5625 326.949219 947.355469 331.164062 C 947.15625 334.675781 947.34375 338.027344 944.6875 340.816406 C 941.132812 344.488281 935.789062 343.917969 931.230469 343.097656 C 930.519531 342.972656 929.859375 342.71875 929.246094 342.332031 C 928.636719 341.949219 928.117188 341.464844 927.695312 340.878906 L 925.285156 341.007812 L 920.769531 254.511719 L 934.0625 253.816406 C 933.695312 252.765625 933.605469 251.6875 933.785156 250.589844 C 934.035156 249.007812 934.507812 247.496094 935.210938 246.054688 C 935.914062 244.613281 936.808594 243.308594 937.902344 242.136719 L 937.582031 235.976562 L 949.425781 235.355469 C 956.300781 233.320312 963.3125 232.613281 970.457031 233.230469 C 971.273438 233.335938 972 233.640625 972.648438 234.144531 L 990.761719 233.199219 Z M 990.761719 233.144531 " fill-opacity="1" fill-rule="nonzero"/></g></g></g><g clip-path="url(#04ae76ff7a)"><g clip-path="url(#02ee79d984)"><g clip-path="url(#27f84257b0)"><path fill="#ffc627" d="M 800.101562 591.703125 L 799.964844 591.707031 L 782.230469 592.632812 L 764.511719 593.558594 L 748.546875 594.394531 L 730.828125 595.320312 L 712.960938 596.25 L 713.902344 614.257812 L 731.632812 613.332031 L 732.558594 631.050781 L 750.414062 630.117188 L 766.378906 629.285156 L 784.097656 628.359375 L 801.828125 627.433594 L 819.683594 626.5 L 818.742188 608.507812 L 801.027344 609.433594 Z M 800.101562 591.703125 " fill-opacity="1" fill-rule="nonzero"/></g></g></g><g clip-path="url(#aa18d8cc11)"><g clip-path="url(#a004e198c4)"><g clip-path="url(#63f40b38eb)"><path fill="#ffc627" d="M 438.128906 331.675781 L 437.285156 315.574219 L 437.148438 315.582031 L 419.292969 316.515625 L 420.136719 332.617188 L 421.066406 350.472656 L 438.785156 349.546875 L 439.710938 367.277344 L 439.847656 367.273438 L 457.71875 366.339844 L 456.777344 348.332031 L 439.046875 349.257812 Z M 438.128906 331.675781 " fill-opacity="1" fill-rule="nonzero"/></g></g></g><g clip-path="url(#f07e7d2bec)"><g clip-path="url(#5c73ed51c3)"><g clip-path="url(#aefc3c2f26)"><path fill="#ffc627" d="M 746.933594 560.839844 L 746.007812 543.121094 L 745.074219 525.253906 L 727.082031 526.191406 L 728.015625 544.058594 L 728.941406 561.777344 L 729.78125 577.867188 L 747.773438 576.929688 Z M 746.933594 560.839844 " fill-opacity="1" fill-rule="nonzero"/></g></g></g><g clip-path="url(#24d96b8d03)"><g clip-path="url(#a0d53a3f4e)"><g clip-path="url(#e4e496582f)"><path fill="#ffc627" d="M 435.441406 280.261719 L 434.511719 262.40625 L 416.519531 263.347656 L 417.449219 281.203125 L 418.382812 299.070312 L 436.375 298.128906 Z M 435.441406 280.261719 " fill-opacity="1" fill-rule="nonzero"/></g></g></g><g clip-path="url(#4de25dc92c)"><g clip-path="url(#f8e8960f57)"><g clip-path="url(#1ccf7cc99b)"><path fill="#ffc627" d="M 837.140625 625.589844 L 837.277344 625.582031 L 853.367188 624.742188 L 852.429688 606.75 L 836.203125 607.597656 Z M 837.140625 625.589844 " fill-opacity="1" fill-rule="nonzero"/></g></g></g><g clip-path="url(#e91d240661)"><g clip-path="url(#fe8992b533)"><g clip-path="url(#4af548bc94)"><path fill="#ffc627" d="M 990.855469 233.359375 L 990.859375 233.496094 L 991.785156 251.214844 L 992.71875 269.082031 L 1008.945312 268.234375 L 1008.011719 250.367188 L 1007.078125 232.511719 Z M 990.855469 233.359375 " fill-opacity="1" fill-rule="nonzero"/></g></g></g><g clip-path="url(#4b4ec85975)"><g clip-path="url(#32daba1541)"><g clip-path="url(#36952d07dc)"><path fill="#ffc627" d="M 994.472656 302.628906 L 995.386719 320.210938 L 977.671875 321.136719 L 978.609375 339.140625 L 978.746094 339.136719 L 996.601562 338.203125 L 995.675781 320.472656 L 1011.628906 319.636719 L 1010.695312 301.78125 L 1009.855469 285.679688 L 993.628906 286.527344 Z M 994.472656 302.628906 " fill-opacity="1" fill-rule="nonzero"/></g></g></g><g clip-path="url(#7b17b227c3)"><g clip-path="url(#680006788b)"><g clip-path="url(#fb497f45de)"><path fill="#ffc627" d="M 848.273438 189.246094 L 605.269531 201.933594 L 615.277344 393.632812 L 633.078125 392.703125 L 634.835938 426.386719 L 652.570312 425.460938 L 654.421875 460.9375 L 688.09375 459.179688 L 689.019531 476.910156 L 706.679688 475.988281 L 707.515625 491.941406 L 812.371094 486.464844 L 811.539062 470.515625 L 845.222656 468.753906 L 844.296875 451.023438 L 862.097656 450.09375 L 860.246094 414.644531 L 877.964844 413.71875 L 877.039062 395.988281 L 894.769531 395.0625 L 883.929688 187.386719 L 848.328125 189.246094 Z M 874.003906 344.425781 L 874.921875 362.007812 L 839.746094 363.84375 L 837.914062 328.75 L 873.128906 326.910156 Z M 867.617188 222.109375 L 871.3125 292.871094 L 836.136719 294.710938 L 831.617188 208.171875 L 866.835938 206.332031 Z M 867.617188 222.109375 " fill-opacity="1" fill-rule="nonzero"/></g></g></g><g clip-path="url(#b032fdfce9)"><g clip-path="url(#b69dca7201)"><g clip-path="url(#39cc56b123)"><path fill="#ffed95" d="M 432.621094 228.867188 L 450.355469 227.941406 L 451.1875 243.894531 L 433.453125 244.820312 Z M 432.621094 228.867188 " fill-opacity="1" fill-rule="nonzero"/></g></g></g><g clip-path="url(#b697ff5a18)"><g clip-path="url(#913306bf53)"><g clip-path="url(#52301b6fd3)"><path fill="#ffed95" d="M 818.613281 608.652344 L 836.347656 607.726562 L 837.273438 625.457031 L 819.539062 626.382812 Z M 818.613281 608.652344 " fill-opacity="1" fill-rule="nonzero"/></g></g></g><g clip-path="url(#26548977ee)"><g clip-path="url(#3b9cab9ab2)"><g clip-path="url(#8a31fc9a2d)"><path fill="#ffed95" d="M 745.871094 543.128906 L 746.796875 560.847656 L 747.628906 576.8125 L 763.59375 575.976562 L 762.761719 560.011719 L 761.835938 542.292969 L 760.910156 524.5625 L 744.945312 525.394531 Z M 745.871094 543.128906 " fill-opacity="1" fill-rule="nonzero"/></g></g></g><g clip-path="url(#012fc94128)"><g clip-path="url(#16e59d3851)"><g clip-path="url(#9bd25b5b48)"><path fill="#ffed95" d="M 415.738281 245.742188 L 433.46875 244.816406 L 434.394531 262.550781 L 416.664062 263.476562 Z M 415.738281 245.742188 " fill-opacity="1" fill-rule="nonzero"/></g></g></g><g clip-path="url(#cf3f6f56b0)"><g clip-path="url(#413e40cd0c)"><g clip-path="url(#e98dc62dde)"><path fill="#ffed95" d="M 418.511719 298.925781 L 436.246094 298 L 437.171875 315.730469 L 419.4375 316.65625 Z M 418.511719 298.925781 " fill-opacity="1" fill-rule="nonzero"/></g></g></g><g clip-path="url(#6ba406e293)"><g clip-path="url(#4e13a76b19)"><g clip-path="url(#ca4ecaa512)"><path fill="#ffed95" d="M 837.765625 328.578125 L 838.691406 346.308594 L 839.617188 364.027344 L 857.347656 363.101562 L 875.066406 362.175781 L 874.144531 344.460938 L 873.21875 326.726562 L 855.5 327.652344 Z M 837.765625 328.578125 " fill-opacity="1" fill-rule="nonzero"/></g></g></g><g clip-path="url(#c79357f80a)"><g clip-path="url(#f676f40e8b)"><g clip-path="url(#dfe26a970d)"><path fill="#ffed95" d="M 990.070312 215.757812 L 1006.023438 214.925781 L 1006.949219 232.65625 L 990.996094 233.488281 Z M 990.070312 215.757812 " fill-opacity="1" fill-rule="nonzero"/></g></g></g><g clip-path="url(#9f24c4f40e)"><g clip-path="url(#ec84795f83)"><g clip-path="url(#fd402991d3)"><path fill="#ffed95" d="M 971.519531 200.730469 L 989.253906 199.804688 L 990.085938 215.757812 L 972.355469 216.683594 Z M 971.519531 200.730469 " fill-opacity="1" fill-rule="nonzero"/></g></g></g><g clip-path="url(#e231fea300)"><g clip-path="url(#908355e5eb)"><g clip-path="url(#726d11e806)"><path fill="#ffed95" d="M 992.847656 268.9375 L 1008.800781 268.105469 L 1009.726562 285.839844 L 993.773438 286.671875 Z M 992.847656 268.9375 " fill-opacity="1" fill-rule="nonzero"/></g></g></g><g clip-path="url(#0e213671c8)"><g clip-path="url(#1eff3b9313)"><g clip-path="url(#2986446f3f)"><path fill="#ffed95" d="M 831.472656 208.042969 L 832.304688 223.996094 L 833.230469 241.726562 L 834.15625 259.445312 L 836.007812 294.90625 L 853.742188 293.980469 L 871.457031 293.058594 L 870.53125 275.324219 L 869.605469 257.59375 L 868.683594 239.875 L 867.757812 222.144531 L 866.921875 206.191406 L 849.207031 207.117188 Z M 831.472656 208.042969 " fill-opacity="1" fill-rule="nonzero"/></g></g></g><g clip-path="url(#6dbe720af3)"><g clip-path="url(#56303064ec)"><g clip-path="url(#5f886e7f94)"><path fill="#ffed95" d="M 799.96875 591.847656 L 817.703125 590.921875 L 818.628906 608.652344 L 800.894531 609.578125 Z M 799.96875 591.847656 " fill-opacity="1" fill-rule="nonzero"/></g></g></g><g clip-path="url(#43b9523564)"><g clip-path="url(#e31302443f)"><g clip-path="url(#c11ce69dd8)"><path fill="#3d3b52" d="M 1006.933594 213.914062 L 1006.101562 197.964844 L 990.148438 198.796875 L 989.222656 181.066406 L 918.320312 184.765625 L 916.472656 149.316406 L 497.96875 171.167969 L 499.820312 206.617188 L 430.6875 210.226562 L 431.617188 228.027344 L 413.898438 228.953125 L 414.726562 244.835938 L 396.996094 245.761719 L 402.554688 352.261719 L 420.355469 351.332031 L 421.285156 369.132812 L 438.9375 368.210938 L 439.859375 385.929688 L 457.660156 385 L 458.585938 402.734375 L 474.472656 401.902344 L 475.304688 417.855469 L 493.105469 416.925781 L 494.027344 434.574219 L 547.195312 431.800781 L 549.046875 467.261719 L 565.011719 466.429688 L 565.9375 484.160156 L 583.65625 483.238281 L 584.488281 499.1875 L 619.9375 497.335938 L 620.863281 515.070312 L 656.3125 513.21875 L 657.238281 530.9375 L 690.910156 529.179688 L 693.492188 578.664062 L 624.304688 582.277344 L 625.234375 600.078125 L 607.515625 601 L 608.441406 618.734375 L 590.640625 619.664062 L 591.566406 637.382812 L 573.917969 638.304688 L 574.941406 657.953125 L 908.34375 640.542969 L 907.3125 620.828125 L 889.511719 621.757812 L 888.589844 604.039062 L 870.9375 604.960938 L 870.011719 587.226562 L 852.28125 588.152344 L 851.351562 570.351562 L 782.21875 573.960938 L 779.636719 524.546875 L 815.085938 522.695312 L 814.164062 504.976562 L 847.847656 503.21875 L 846.921875 485.488281 L 864.652344 484.558594 L 863.820312 468.609375 L 881.539062 467.683594 L 880.613281 449.953125 L 898.414062 449.023438 L 896.558594 413.558594 L 930.246094 411.800781 L 929.320312 394.082031 L 964.769531 392.230469 L 963.9375 376.277344 L 981.738281 375.347656 L 980.8125 357.617188 L 998.390625 356.699219 L 997.46875 338.980469 L 1013.417969 338.148438 L 1012.488281 320.347656 L 1030.222656 319.421875 L 1024.664062 212.988281 Z M 504.40625 294.441406 L 507.964844 362.617188 L 492.164062 363.441406 L 491.234375 345.640625 L 473.433594 346.570312 L 472.515625 328.921875 L 456.628906 329.75 L 453.121094 262.535156 L 484.886719 260.875 L 485.8125 278.59375 L 503.53125 277.667969 Z M 501.628906 241.257812 L 502.503906 258.03125 L 486.703125 258.859375 L 485.773438 241.058594 L 450.175781 242.917969 L 451.105469 260.714844 L 433.371094 261.640625 L 437.082031 332.695312 L 454.882812 331.765625 L 455.808594 349.480469 L 471.691406 348.652344 L 472.621094 366.453125 L 490.421875 365.523438 L 491.34375 383.242188 L 508.996094 382.320312 L 510.652344 414.085938 L 494.851562 414.914062 L 494.015625 398.878906 L 476.214844 399.808594 L 475.289062 382.089844 L 459.40625 382.917969 L 458.480469 365.199219 L 440.75 366.125 L 439.820312 348.324219 L 422.101562 349.25 L 416.738281 246.558594 L 434.457031 245.632812 L 433.628906 229.777344 L 500.847656 226.265625 Z M 800.074219 592.800781 L 850.519531 590.167969 L 851.445312 607.898438 L 869.175781 606.972656 L 870 622.773438 L 611.28125 636.285156 L 610.453125 620.480469 L 628.1875 619.554688 L 627.261719 601.824219 L 800.019531 592.804688 Z M 713.085938 577.640625 L 710.503906 528.15625 L 759.933594 525.574219 L 762.515625 575.058594 Z M 900.488281 186.660156 L 911.269531 393.101562 L 893.550781 394.027344 L 894.480469 411.828125 L 876.746094 412.753906 L 878.59375 448.136719 L 860.875 449.058594 L 861.800781 466.792969 L 844.070312 467.71875 L 844.902344 483.667969 L 811.21875 485.429688 L 812.140625 503.089844 L 658.074219 511.136719 L 657.148438 493.472656 L 621.699219 495.324219 L 620.867188 479.371094 L 585.402344 481.222656 L 584.476562 463.492188 L 566.757812 464.417969 L 564.910156 428.964844 L 548.984375 429.796875 L 548.054688 411.996094 L 530.253906 412.925781 L 518.601562 189.738281 L 899.609375 169.84375 Z M 926.464844 340.765625 L 922.035156 255.871094 L 939.753906 254.945312 L 938.824219 237.175781 L 972.371094 235.421875 L 975.882812 302.640625 L 958.148438 303.566406 L 959.074219 321.285156 L 941.34375 322.210938 L 942.273438 340.007812 Z M 1005.949219 232.707031 L 1010.433594 318.601562 L 994.523438 319.433594 L 995.453125 337.234375 L 977.734375 338.15625 L 978.660156 355.875 L 960.929688 356.800781 L 961.851562 374.453125 L 928.316406 376.203125 L 927.492188 360.402344 L 945.210938 359.476562 L 944.285156 341.757812 L 962.015625 340.832031 L 961.085938 323.03125 L 978.886719 322.101562 L 977.964844 304.453125 L 995.617188 303.53125 L 991.90625 232.480469 L 974.1875 233.40625 L 973.257812 215.605469 L 935.878906 217.558594 L 936.808594 235.355469 L 921.007812 236.183594 L 919.347656 204.414062 L 988.332031 200.8125 L 989.164062 216.765625 L 1005.117188 215.933594 Z M 1005.949219 232.707031 " fill-opacity="1" fill-rule="nonzero"/></g></g></g></svg>