<svg xmlns="http://www.w3.org/2000/svg" xmlns:xlink="http://www.w3.org/1999/xlink" width="1920" zoomAndPan="magnify" viewBox="0 0 1440 809.999993" height="1080" preserveAspectRatio="xMidYMid meet" version="1.0"><defs><g/></defs><g fill="#693568" fill-opacity="1"><g transform="translate(231.301869, 381.750001)"><g><path d="M 2.886719 -2.308594 L 84.015625 -4.332031 L 77.375 -62.9375 L 105.667969 0 L 186.507812 -2.308594 L 169.472656 -200.078125 L 113.753906 -194.882812 L 110.289062 -109.710938 L 61.785156 -202.097656 L 6.0625 -196.613281 Z M 2.886719 -2.308594 "/></g></g></g><g fill="#693568" fill-opacity="1"><g transform="translate(420.696952, 381.750001)"><g><path d="M 2.886719 -0.867188 L 178.425781 0 L 169.761719 -66.691406 L 81.417969 -52.546875 L 77.953125 -69.867188 L 131.941406 -82.859375 L 124.433594 -129.054688 L 67.269531 -120.683594 L 63.804688 -137.136719 L 155.90625 -145.222656 L 156.769531 -185.066406 L 50.234375 -202.386719 L 9.527344 -179.867188 Z M 2.886719 -0.867188 "/></g></g></g><g fill="#693568" fill-opacity="1"><g transform="translate(602.00807, 381.750001)"><g><path d="M 70.15625 0.289062 L 139.160156 -1.730469 L 199.5 -43.308594 L 163.121094 -98.738281 L 114.90625 -73.042969 L 79.683594 -94.699219 L 104.515625 -131.652344 L 160.8125 -142.625 L 157.636719 -200.078125 L 90.367188 -202.386719 L 2.886719 -130.785156 L 8.371094 -55.144531 Z M 70.15625 0.289062 "/></g></g></g><g fill="#693568" fill-opacity="1"><g transform="translate(804.395178, 381.750001)"><g><path d="M 123.859375 0 L 187.375 -32.914062 L 135.40625 -80.839844 L 173.804688 -133.960938 L 122.992188 -202.097656 L 24.25 -200.945312 L 2.886719 0 L 89.210938 -3.464844 L 87.769531 -47.925781 Z M 84.304688 -141.179688 L 102.78125 -141.179688 L 105.667969 -132.808594 L 85.171875 -121.546875 Z M 84.304688 -141.179688 "/></g></g></g><g fill="#693568" fill-opacity="1"><g transform="translate(994.656398, 381.750001)"><g><path d="M 55.433594 0 L 168.898438 -11.835938 L 215.667969 -131.941406 L 151.285156 -202.097656 L 65.25 -193.726562 L 2.886719 -114.90625 Z M 84.882812 -110.289062 L 105.378906 -137.136719 L 134.828125 -110.289062 L 109.132812 -87.191406 Z M 84.882812 -110.289062 "/></g></g></g><g fill="#693568" fill-opacity="1"><g transform="translate(222.061812, 609.755733)"><g><path d="M 57.164062 0 L 151.863281 0 L 194.015625 -33.78125 L 179.867188 -92.386719 L 143.488281 -106.246094 L 158.503906 -113.753906 L 158.503906 -158.792969 L 136.5625 -197.769531 L 75.355469 -202.097656 L 19.921875 -196.613281 L 2.886719 -20.210938 L 32.335938 0.578125 Z M 80.261719 -148.398438 L 102.492188 -155.039062 L 105.957031 -134.539062 L 82.28125 -127.320312 Z M 86.613281 -77.953125 L 88.347656 -78.820312 L 113.753906 -67.847656 L 116.640625 -60.050781 L 88.632812 -57.164062 Z M 86.613281 -77.953125 "/></g></g></g><g fill="#693568" fill-opacity="1"><g transform="translate(418.963374, 609.755733)"><g><path d="M 123.859375 0 L 187.375 -32.914062 L 135.40625 -80.839844 L 173.804688 -133.960938 L 122.992188 -202.097656 L 24.25 -200.945312 L 2.886719 0 L 89.210938 -3.464844 L 87.769531 -47.925781 Z M 84.304688 -141.179688 L 102.78125 -141.179688 L 105.667969 -132.808594 L 85.171875 -121.546875 Z M 84.304688 -141.179688 "/></g></g></g><g fill="#693568" fill-opacity="1"><g transform="translate(609.224617, 609.755733)"><g><path d="M 2.886719 -0.867188 L 178.425781 0 L 169.761719 -66.691406 L 81.417969 -52.546875 L 77.953125 -69.867188 L 131.941406 -82.859375 L 124.433594 -129.054688 L 67.269531 -120.683594 L 63.804688 -137.136719 L 155.90625 -145.222656 L 156.769531 -185.066406 L 50.234375 -202.386719 L 9.527344 -179.867188 Z M 2.886719 -0.867188 "/></g></g></g><g fill="#693568" fill-opacity="1"><g transform="translate(790.535736, 609.755733)"><g><path d="M 76.507812 -1.730469 L 90.65625 -50.234375 L 141.46875 -47.925781 L 156.480469 0.289062 L 230.105469 -17.035156 L 134.828125 -202.097656 L 90.65625 -202.097656 L 48.503906 -112.886719 L 24.539062 -116.640625 L 10.394531 -53.699219 L 20.5 -53.125 L 2.886719 -15.878906 Z M 106.246094 -104.226562 L 114.617188 -133.097656 L 124.722656 -101.339844 Z M 106.246094 -104.226562 "/></g></g></g><g fill="#693568" fill-opacity="1"><g transform="translate(1023.526307, 609.755733)"><g><path d="M 134.828125 0 L 196.035156 -49.660156 L 128.765625 -108.265625 L 171.785156 -152.441406 L 127.609375 -203.253906 L 84.304688 -145.222656 L 82.28125 -202.097656 L 24.25 -200.945312 L 2.886719 0 L 89.210938 -3.464844 L 87.191406 -64.382812 Z M 134.828125 0 "/></g></g></g><g fill="#ff3131" fill-opacity="1"><g transform="translate(226.794765, 372.750001)"><g><path d="M 2.886719 -2.308594 L 84.015625 -4.332031 L 77.375 -62.9375 L 105.667969 0 L 186.507812 -2.308594 L 169.472656 -200.078125 L 113.753906 -194.882812 L 110.289062 -109.710938 L 61.785156 -202.097656 L 6.0625 -196.613281 Z M 2.886719 -2.308594 "/></g></g></g><g fill="#ff914d" fill-opacity="1"><g transform="translate(416.193193, 372.750001)"><g><path d="M 2.886719 -0.867188 L 178.425781 0 L 169.761719 -66.691406 L 81.417969 -52.546875 L 77.953125 -69.867188 L 131.941406 -82.859375 L 124.433594 -129.054688 L 67.269531 -120.683594 L 63.804688 -137.136719 L 155.90625 -145.222656 L 156.769531 -185.066406 L 50.234375 -202.386719 L 9.527344 -179.867188 Z M 2.886719 -0.867188 "/></g></g></g><g fill="#ffde59" fill-opacity="1"><g transform="translate(597.505684, 372.750001)"><g><path d="M 70.15625 0.289062 L 139.160156 -1.730469 L 199.5 -43.308594 L 163.121094 -98.738281 L 114.90625 -73.042969 L 79.683594 -94.699219 L 104.515625 -131.652344 L 160.8125 -142.625 L 157.636719 -200.078125 L 90.367188 -202.386719 L 2.886719 -130.785156 L 8.371094 -55.144531 Z M 70.15625 0.289062 "/></g></g></g><g fill="#7ed957" fill-opacity="1"><g transform="translate(799.900209, 372.750001)"><g><path d="M 123.859375 0 L 187.375 -32.914062 L 135.40625 -80.839844 L 173.804688 -133.960938 L 122.992188 -202.097656 L 24.25 -200.945312 L 2.886719 0 L 89.210938 -3.464844 L 87.769531 -47.925781 Z M 84.304688 -141.179688 L 102.78125 -141.179688 L 105.667969 -132.808594 L 85.171875 -121.546875 Z M 84.304688 -141.179688 "/></g></g></g><g fill="#5ce1e6" fill-opacity="1"><g transform="translate(990.165824, 372.750001)"><g><path d="M 55.433594 0 L 168.898438 -11.835938 L 215.667969 -131.941406 L 151.285156 -202.097656 L 65.25 -193.726562 L 2.886719 -114.90625 Z M 84.882812 -110.289062 L 105.378906 -137.136719 L 134.828125 -110.289062 L 109.132812 -87.191406 Z M 84.882812 -110.289062 "/></g></g></g><g fill="#5ce1e6" fill-opacity="1"><g transform="translate(217.554722, 602.255733)"><g><path d="M 57.164062 0 L 151.863281 0 L 194.015625 -33.78125 L 179.867188 -92.386719 L 143.488281 -106.246094 L 158.503906 -113.753906 L 158.503906 -158.792969 L 136.5625 -197.769531 L 75.355469 -202.097656 L 19.921875 -196.613281 L 2.886719 -20.210938 L 32.335938 0.578125 Z M 80.261719 -148.398438 L 102.492188 -155.039062 L 105.957031 -134.539062 L 82.28125 -127.320312 Z M 86.613281 -77.953125 L 88.347656 -78.820312 L 113.753906 -67.847656 L 116.640625 -60.050781 L 88.632812 -57.164062 Z M 86.613281 -77.953125 "/></g></g></g><g fill="#7ed957" fill-opacity="1"><g transform="translate(414.464873, 602.255733)"><g><path d="M 123.859375 0 L 187.375 -32.914062 L 135.40625 -80.839844 L 173.804688 -133.960938 L 122.992188 -202.097656 L 24.25 -200.945312 L 2.886719 0 L 89.210938 -3.464844 L 87.769531 -47.925781 Z M 84.304688 -141.179688 L 102.78125 -141.179688 L 105.667969 -132.808594 L 85.171875 -121.546875 Z M 84.304688 -141.179688 "/></g></g></g><g fill="#ffde59" fill-opacity="1"><g transform="translate(604.730488, 602.255733)"><g><path d="M 2.886719 -0.867188 L 178.425781 0 L 169.761719 -66.691406 L 81.417969 -52.546875 L 77.953125 -69.867188 L 131.941406 -82.859375 L 124.433594 -129.054688 L 67.269531 -120.683594 L 63.804688 -137.136719 L 155.90625 -145.222656 L 156.769531 -185.066406 L 50.234375 -202.386719 L 9.527344 -179.867188 Z M 2.886719 -0.867188 "/></g></g></g><g fill="#ff914d" fill-opacity="1"><g transform="translate(786.042979, 602.255733)"><g><path d="M 76.507812 -1.730469 L 90.65625 -50.234375 L 141.46875 -47.925781 L 156.480469 0.289062 L 230.105469 -17.035156 L 134.828125 -202.097656 L 90.65625 -202.097656 L 48.503906 -112.886719 L 24.539062 -116.640625 L 10.394531 -53.699219 L 20.5 -53.125 L 2.886719 -15.878906 Z M 106.246094 -104.226562 L 114.617188 -133.097656 L 124.722656 -101.339844 Z M 106.246094 -104.226562 "/></g></g></g><g fill="#ff3131" fill-opacity="1"><g transform="translate(1019.035155, 602.255733)"><g><path d="M 134.828125 0 L 196.035156 -49.660156 L 128.765625 -108.265625 L 171.785156 -152.441406 L 127.609375 -203.253906 L 84.304688 -145.222656 L 82.28125 -202.097656 L 24.25 -200.945312 L 2.886719 0 L 89.210938 -3.464844 L 87.191406 -64.382812 Z M 134.828125 0 "/></g></g></g></svg>